<?xml version="1.0" encoding="UTF-8" standalone="no"?>
<!-- Created with Inkscape (http://www.inkscape.org/) -->

<svg
   xmlns:dc="http://purl.org/dc/elements/1.1/"
   xmlns:cc="http://creativecommons.org/ns#"
   xmlns:rdf="http://www.w3.org/1999/02/22-rdf-syntax-ns#"
   xmlns:svg="http://www.w3.org/2000/svg"
   xmlns="http://www.w3.org/2000/svg"
   xmlns:sodipodi="http://sodipodi.sourceforge.net/DTD/sodipodi-0.dtd"
   xmlns:inkscape="http://www.inkscape.org/namespaces/inkscape"
   id="svg2"
   version="1.1"
   inkscape:version="0.48.1 r9760"
   width="744.09446"
   height="1052.3622"
   xml:space="preserve"
   sodipodi:docname="Android_bord_blanc.svg"><metadata
     id="metadata8"><rdf:RDF><cc:Work
         rdf:about=""><dc:format>image/svg+xml</dc:format><dc:type
           rdf:resource="http://purl.org/dc/dcmitype/StillImage" /><dc:title /></cc:Work></rdf:RDF></metadata><defs
     id="defs6" /><sodipodi:namedview
     pagecolor="#7fff80"
     bordercolor="#666666"
     borderopacity="1"
     objecttolerance="10"
     gridtolerance="10"
     guidetolerance="10"
     inkscape:pageopacity="1"
     inkscape:pageshadow="2"
     inkscape:window-width="912"
     inkscape:window-height="715"
     id="namedview4"
     showgrid="false"
     inkscape:zoom="0.26606809"
     inkscape:cx="372.04724"
     inkscape:cy="580.67842"
     inkscape:window-x="14"
     inkscape:window-y="25"
     inkscape:window-maximized="0"
     inkscape:current-layer="g10" /><g
     id="g10"
     inkscape:groupmode="layer"
     inkscape:label="Android"
     transform="matrix(1.25,0,0,-1.25,0,1052.3622)"><g
       id="g3103"><path
         d="m 351.5,621.38965 c 0,0 -12,-18 -12,-18"
         style="fill:#000000;fill-opacity:1;fill-rule:nonzero;stroke:none"
         id="path16"
         inkscape:connector-curvature="0" /><path
         d="m 351.5,621.38965 c 0,0 -12,-18 -12,-18"
         style="fill:none;stroke:#ffffff;stroke-width:30;stroke-linecap:round;stroke-linejoin:miter;stroke-miterlimit:4;stroke-opacity:1;stroke-dasharray:none"
         id="path18"
         inkscape:connector-curvature="0" /><path
         d="m 245.5,621.38965 c 0,0 12,-18 12,-18"
         style="fill:#000000;fill-opacity:1;fill-rule:nonzero;stroke:none"
         id="path20"
         inkscape:connector-curvature="0" /><path
         d="m 245.5,621.38965 c 0,0 12,-18 12,-18"
         style="fill:none;stroke:#ffffff;stroke-width:30;stroke-linecap:round;stroke-linejoin:miter;stroke-miterlimit:4;stroke-opacity:1;stroke-dasharray:none"
         id="path22"
         inkscape:connector-curvature="0" /><path
         d="m 264.5,370.38965 c 0,0 0,-38 0,-38"
         style="fill:#000000;fill-opacity:1;fill-rule:nonzero;stroke:none"
         id="path24"
         inkscape:connector-curvature="0" /><path
         d="m 264.5,370.38965 c 0,0 0,-38 0,-38"
         style="fill:none;stroke:#ffffff;stroke-width:60;stroke-linecap:round;stroke-linejoin:miter;stroke-miterlimit:4;stroke-opacity:1;stroke-dasharray:none"
         id="path26"
         inkscape:connector-curvature="0" /><path
         d="m 332.5,370.38965 c 0,0 0,-38 0,-38"
         style="fill:#000000;fill-opacity:1;fill-rule:nonzero;stroke:none"
         id="path28"
         inkscape:connector-curvature="0" /><path
         d="m 332.5,370.38965 c 0,0 0,-38 0,-38"
         style="fill:none;stroke:#ffffff;stroke-width:60;stroke-linecap:round;stroke-linejoin:miter;stroke-miterlimit:4;stroke-opacity:1;stroke-dasharray:none"
         id="path30"
         inkscape:connector-curvature="0" /><path
         d="m 184.5,508.38965 c 0,0 0,-77 0,-77"
         style="fill:#000000;fill-opacity:1;fill-rule:nonzero;stroke:none"
         id="path32"
         inkscape:connector-curvature="0" /><path
         d="m 184.5,508.38965 c 0,0 0,-77 0,-77"
         style="fill:none;stroke:#ffffff;stroke-width:60;stroke-linecap:round;stroke-linejoin:miter;stroke-miterlimit:4;stroke-opacity:1;stroke-dasharray:none"
         id="path34"
         inkscape:connector-curvature="0" /><path
         d="m 412.5,508.38965 c 0,0 0,-77 0,-77"
         style="fill:#000000;fill-opacity:1;fill-rule:nonzero;stroke:none"
         id="path36"
         inkscape:connector-curvature="0" /><path
         d="m 412.5,508.38965 c 0,0 0,-77 0,-77"
         style="fill:none;stroke:#ffffff;stroke-width:60;stroke-linecap:round;stroke-linejoin:miter;stroke-miterlimit:4;stroke-opacity:1;stroke-dasharray:none"
         id="path38"
         inkscape:connector-curvature="0" /><path
         d="m 298.5,613.38965 c 49.70605,0 90,-33.5791 90,-75 0,-41.42188 -40.29395,-75 -90,-75 -49.70508,0 -90,33.57812 -90,75 0,41.4209 40.29492,75 90,75 z"
         style="fill:#97c03d;fill-opacity:1;fill-rule:nonzero;stroke:none"
         id="path40"
         inkscape:connector-curvature="0" /><path
         d="m 298.5,613.38965 c 49.70605,0 90,-33.5791 90,-75 0,-41.42188 -40.29395,-75 -90,-75 -49.70508,0 -90,33.57812 -90,75 0,41.4209 40.29492,75 90,75 z"
         style="fill:none;stroke:#ffffff;stroke-width:12;stroke-linecap:round;stroke-linejoin:miter;stroke-miterlimit:4;stroke-opacity:1;stroke-dasharray:none"
         id="path42"
         inkscape:connector-curvature="0" /><path
         d="m 388.5,532.38965 c 0,0 -180,0 -180,0 0,0 0,-138 0,-138 0,-13.80762 11.19336,-25 25,-25 0,0 130,0 130,0 13.80762,0 25,11.19238 25,25 0,0 0,138 0,138 z"
         style="fill:#97c03d;fill-opacity:1;fill-rule:nonzero;stroke:none"
         id="path44"
         inkscape:connector-curvature="0" /><path
         d="m 388.5,532.38965 c 0,0 -180,0 -180,0 0,0 0,-138 0,-138 0,-13.80762 11.19336,-25 25,-25 0,0 130,0 130,0 13.80762,0 25,11.19238 25,25 0,0 0,138 0,138 z"
         style="fill:none;stroke:#ffffff;stroke-width:12;stroke-linecap:round;stroke-linejoin:miter;stroke-miterlimit:4;stroke-opacity:1;stroke-dasharray:none"
         id="path46"
         inkscape:connector-curvature="0" /><path
         d="m 262.5,580.38965 c 4.9707,0 9,-4.0293 9,-9 0,-4.9707 -4.0293,-9 -9,-9 -4.9707,0 -9,4.0293 -9,9 0,4.9707 4.0293,9 9,9 z"
         style="fill:#ffffff;fill-opacity:1;fill-rule:nonzero;stroke:none"
         id="path48"
         inkscape:connector-curvature="0" /><path
         d="m 334.5,580.38965 c 4.9707,0 9,-4.0293 9,-9 0,-4.9707 -4.0293,-9 -9,-9 -4.9707,0 -9,4.0293 -9,9 0,4.9707 4.0293,9 9,9 z"
         style="fill:#ffffff;fill-opacity:1;fill-rule:nonzero;stroke:none"
         id="path50"
         inkscape:connector-curvature="0" /><path
         d="m 351.5,621.38965 c 0,0 -24,-36 -24,-36"
         style="fill:#000000;fill-opacity:1;fill-rule:nonzero;stroke:none"
         id="path52"
         inkscape:connector-curvature="0" /><path
         d="m 351.5,621.38965 c 0,0 -24,-36 -24,-36"
         style="fill:none;stroke:#97c03d;stroke-width:6;stroke-linecap:round;stroke-linejoin:miter;stroke-miterlimit:4;stroke-opacity:1;stroke-dasharray:none"
         id="path54"
         inkscape:connector-curvature="0" /><path
         d="m 245.5,621.38965 c 0,0 24,-36 24,-36"
         style="fill:#000000;fill-opacity:1;fill-rule:nonzero;stroke:none"
         id="path56"
         inkscape:connector-curvature="0" /><path
         d="m 245.5,621.38965 c 0,0 24,-36 24,-36"
         style="fill:none;stroke:#97c03d;stroke-width:6;stroke-linecap:round;stroke-linejoin:miter;stroke-miterlimit:4;stroke-opacity:1;stroke-dasharray:none"
         id="path58"
         inkscape:connector-curvature="0" /><path
         d="m 264.5,370.38965 c 0,0 0,-38 0,-38"
         style="fill:#000000;fill-opacity:1;fill-rule:nonzero;stroke:none"
         id="path60"
         inkscape:connector-curvature="0" /><path
         d="m 264.5,370.38965 c 0,0 0,-38 0,-38"
         style="fill:none;stroke:#97c03d;stroke-width:36;stroke-linecap:round;stroke-linejoin:miter;stroke-miterlimit:4;stroke-opacity:1;stroke-dasharray:none"
         id="path62"
         inkscape:connector-curvature="0" /><path
         d="m 332.5,370.38965 c 0,0 0,-38 0,-38"
         style="fill:#000000;fill-opacity:1;fill-rule:nonzero;stroke:none"
         id="path64"
         inkscape:connector-curvature="0" /><path
         d="m 332.5,370.38965 c 0,0 0,-38 0,-38"
         style="fill:none;stroke:#97c03d;stroke-width:36;stroke-linecap:round;stroke-linejoin:miter;stroke-miterlimit:4;stroke-opacity:1;stroke-dasharray:none"
         id="path66"
         inkscape:connector-curvature="0" /><path
         d="m 184.5,508.38965 c 0,0 0,-77 0,-77"
         style="fill:#000000;fill-opacity:1;fill-rule:nonzero;stroke:none"
         id="path68"
         inkscape:connector-curvature="0" /><path
         d="m 184.5,508.38965 c 0,0 0,-77 0,-77"
         style="fill:none;stroke:#97c03d;stroke-width:36;stroke-linecap:round;stroke-linejoin:miter;stroke-miterlimit:4;stroke-opacity:1;stroke-dasharray:none"
         id="path70"
         inkscape:connector-curvature="0" /><path
         d="m 412.5,508.38965 c 0,0 0,-77 0,-77"
         style="fill:#000000;fill-opacity:1;fill-rule:nonzero;stroke:none"
         id="path72"
         inkscape:connector-curvature="0" /><path
         d="m 412.5,508.38965 c 0,0 0,-77 0,-77"
         style="fill:none;stroke:#97c03d;stroke-width:36;stroke-linecap:round;stroke-linejoin:miter;stroke-miterlimit:4;stroke-opacity:1;stroke-dasharray:none"
         id="path74"
         inkscape:connector-curvature="0" /></g></g></svg>