<?xml version="1.0" encoding="utf-8"?>
<!-- Generator: Adobe Illustrator 15.1.0, SVG Export Plug-In . SVG Version: 6.00 Build 0)  -->
<!DOCTYPE svg PUBLIC "-//W3C//DTD SVG 1.1//EN" "http://www.w3.org/Graphics/SVG/1.1/DTD/svg11.dtd">
<svg version="1.1" id="Layer_1" xmlns="http://www.w3.org/2000/svg" xmlns:xlink="http://www.w3.org/1999/xlink" x="0px" y="0px"
	 width="595.28px" height="841.89px" viewBox="0 0 595.28 841.89" enable-background="new 0 0 595.28 841.89" xml:space="preserve">
<g id="XMLID_2_">
	<g>
		<path fill="#FFFFFF" d="M448,442.89c0,14.67,0,29.33,0,44c-14,0-28,0-42,0C428.87,481.09,443.09,466.65,448,442.89z"/>
		<path d="M448,399.89c0,14.33,0,28.67,0,43c-4.91,23.76-19.13,38.2-42,44c-72,0-144,0-216,0c-22.87-5.8-37.09-20.24-42-44
			c0-14.33,0-28.67,0-43c5.21-24.12,19.88-38.79,44-44c70.67,0,141.33,0,212,0C428.12,361.1,442.79,375.77,448,399.89z M438,442.89
			c5.3-36.74-1.73-64.19-23-74c-11.8-5.44-57.57-5.88-77-3c-13.83,2.05-26,14.06-30,23c-8.76,19.58,1.97,43.83-6,66
			c-1.56,4.34-5.19,9.33-8,13c-3.19,4.16-9.17,7.37-8,10C348.51,472.541,430.22,496.89,438,442.89z M261,387.89
			c-4.12,15.89,23.12,15.89,19,0C276.32,381.86,264.52,381.66,261,387.89z M279,452.89c0-16,0-32,0-48c-5.67,0-11.33,0-17,0
			c0,16,0,32,0,48C267.67,452.89,273.33,452.89,279,452.89z M254,386.89c-6.33,0-12.67,0-19,0c-1.82,12.51-3.4,25.27-6,37
			c-0.95-13.39-4.73-23.94-6-37c-6,0-12,0-18,0c-1.72,12.95-4.74,24.6-7,37c-0.96-13.04-3.78-24.22-5-37c-6.33,0-12.67,0-19,0
			c5.23,22.1,9.85,44.81,16,66c5.33,0,10.67,0,16,0c3.16-12.51,5.21-26.13,8-39c1.8,13.53,4.48,26.18,7,39c5.67,0,11.33,0,17,0
			C243.7,431.26,248.14,408.36,254,386.89z"/>
		<path fill="#FFFFFF" d="M448,355.89c0,14.67,0,29.33,0,44c-5.21-24.12-19.88-38.79-44-44C418.67,355.89,433.33,355.89,448,355.89z
			"/>
		<path fill="#FFFFFF" d="M415,368.89c21.27,9.81,28.3,37.26,23,74c-7.78,54-89.49,29.65-152,35c-1.17-2.63,4.81-5.84,8-10
			c2.81-3.67,6.44-8.66,8-13c7.97-22.17-2.76-46.42,6-66c4-8.94,16.17-20.95,30-23C357.43,363.01,403.2,363.45,415,368.89z
			 M395,395.89c5.97,6.02,19.53,4.44,19-5C413.39,380.02,389.4,380.69,395,395.89z M412,452.89c0-16,0-32,0-48c-5.67,0-11.33,0-17,0
			c0,15.67,0,31.33,0,47C398.9,453.99,406.5,452.39,412,452.89z M385,401.89c0-5,0-10,0-15c-19,0-38,0-57,0c0,22,0,44,0,66
			c6,0,12,0,18,0c0-7,0-14,0-21c11.67,0,23.33,0,35,0c0-5,0-10,0-15c-11.67,0-23.33,0-35,0c0.65-4.69-1.31-11.97,1-15
			C359.67,401.89,372.33,401.89,385,401.89z"/>
		<path d="M414,390.89c0.53,9.44-13.03,11.02-19,5C389.4,380.69,413.39,380.02,414,390.89z"/>
		<path d="M412,404.89c0,16,0,32,0,48c-5.5-0.5-13.1,1.1-17-1c0-15.67,0-31.33,0-47C400.67,404.89,406.33,404.89,412,404.89z"/>
		<path d="M385,386.89c0,5,0,10,0,15c-12.67,0-25.33,0-38,0c-2.31,3.03-0.35,10.31-1,15c11.67,0,23.33,0,35,0c0,5,0,10,0,15
			c-11.67,0-23.33,0-35,0c0,7,0,14,0,21c-6,0-12,0-18,0c0-22,0-44,0-66C347,386.89,366,386.89,385,386.89z"/>
		<path fill="#FFFFFF" d="M280,387.89c4.12,15.89-23.12,15.89-19,0C264.52,381.66,276.32,381.86,280,387.89z"/>
		<path fill="#FFFFFF" d="M279,404.89c0,16,0,32,0,48c-5.67,0-11.33,0-17,0c0-16,0-32,0-48C267.67,404.89,273.33,404.89,279,404.89z
			"/>
		<path fill="#FFFFFF" d="M235,386.89c6.33,0,12.67,0,19,0c-5.86,21.47-10.3,44.37-16,66c-5.67,0-11.33,0-17,0
			c-2.52-12.82-5.2-25.47-7-39c-2.79,12.87-4.84,26.49-8,39c-5.33,0-10.67,0-16,0c-6.15-21.19-10.77-43.9-16-66c6.33,0,12.67,0,19,0
			c1.22,12.78,4.04,23.96,5,37c2.26-12.4,5.28-24.05,7-37c6,0,12,0,18,0c1.27,13.06,5.05,23.61,6,37
			C231.6,412.16,233.18,399.4,235,386.89z"/>
		<path fill="#FFFFFF" d="M148,355.89c14.67,0,29.33,0,44,0c-24.12,5.21-38.79,19.88-44,44C148,385.22,148,370.56,148,355.89z"/>
		<path fill="#FFFFFF" d="M190,486.89c-14,0-28,0-42,0c0-14.67,0-29.33,0-44C152.91,466.65,167.13,481.09,190,486.89z"/>
	</g>
	<g>
	</g>
</g>
<rect x="221.244" y="491.89" fill="none" width="169.756" height="40.016"/>
<text transform="matrix(1 0 0 1 221.2441 523.394)" font-family="'Arial-BoldMT'" font-size="44">DIRECT</text>
</svg>
