<?xml version="1.0" encoding="utf-8"?>
<!-- Generator: Adobe Illustrator 15.1.0, SVG Export Plug-In . SVG Version: 6.00 Build 0)  -->
<!DOCTYPE svg PUBLIC "-//W3C//DTD SVG 1.1//EN" "http://www.w3.org/Graphics/SVG/1.1/DTD/svg11.dtd">
<svg version="1.1" id="Layer_1" xmlns="http://www.w3.org/2000/svg" xmlns:xlink="http://www.w3.org/1999/xlink" x="0px" y="0px"
	 width="300px" height="300px" viewBox="0 0 300 300" enable-background="new 0 0 300 300" xml:space="preserve">
<path d="M264.441,135.584c3.041,2.96,12.961-0.96,16,2c-0.09,6.24-11.119,1.54-16,3c-0.32,22.35,2.881,48.221-9,59
	c8.01,0.66,18.66-1.32,25,1c-6.77,5.561-26.09-1.43-33,4c-1.33,6.34-4.18,11.15-9,14c-19.67,0-39.33,0-59,0
	c-3.74-2.6-6.74-5.92-8-11c-12.699,0.16-19.24-12.939-13-23c-2.66-2.01-4.99-4.34-7-7c-3.05,1.279-2.68,5.99-7,6
	c5.541,11.24-0.36,24.67-13,24c-1.45,4.891-4.13,8.539-8,11c-19.67,0-39.33,0-59,0c-5.54-2.791-7.62-9.051-10-15
	c-8.52-2.811-23.53,0.859-32-2c4.13-4.541,16.57-0.76,24-2c-8.92-9.09-8.73-35.93-8-58c-2.85-3.479-14.76,2.091-16-3
	c1.58-4.42,11.15-0.85,16-2c-1.42-17.75,1.68-30.99,18-31c1-11.46-2.08-19.8,2-26c8.71-13.23,45.83-0.5,64-5
	c10.98,3.35,7.57,21.1,8,35c9.74,0.93,18.06,3.27,21,11c3.609-6.72,9.32-11.34,21-10c0.67-13.99-3.41-32.74,8-36
	c29.291,2.71,76.93-12.93,66,30C260.832,106.524,266.412,117.284,264.441,135.584z M247.441,199.584
	c14.301-7.029,13.281-34.721,11-55c-0.539,8.79-7.41,11.26-12,16C247.102,173.254,245.111,188.584,247.441,199.584z
	 M255.441,137.584c2.68-9.649,6.24-23.99-3-27c-20.799-6.77-18.559,28.85-24,41C246.201,158.793,251.541,151.614,255.441,137.584z
	 M232.441,115.584c2.281-5.06,8.75-8.73,6-16c-19.67,0-39.33,0-59,0c0,3.67,0,7.33,0,11c7.92,0.74,19.5-2.16,23,3
	c-1.33,17.52,0.721,20.94,1,38c-0.219,3.779-3.139,4.859-4,8c2.301,2.699,0.361,9.641,1,14c-0.879,4.779-4.98,6.35-4,13
	c14,0,28,0,42,0c0-9.33,0-18.67,0-28c-5.58-1.42-12.699-1.301-15-6C226.912,139.104,227.512,126.544,232.441,115.584z
	 M196.441,155.584c3.08-3.26,1.73-10.939,2-17c-15.74,1.971-50.09-7.12-45,13c0.609,2.4,3.51,2.681,5,6
	C169.072,154.885,185.871,158.344,196.441,155.584z M195.441,132.584c3.08-3.26,1.73-10.939,2-17c-17.68-0.3-52.51-4.17-39,17
	C168.531,134.234,185.352,134.234,195.441,132.584z M193.441,177.584c2.941-3.061,1.811-10.189,2-16c-20.02-3.41-53.55,1.57-34,19
	C169.342,176.814,184.342,180.154,193.441,177.584z M188.441,200.584c3.08-3.59,3.391-9.949,3-17c-14.939-0.15-31.549-2.23-31,10
	C160.883,203.434,177.053,204.873,188.441,200.584z M154.441,136.584c-0.619-2.38-1.34-4.659-4-5c0.75,3.08-2.74,1.92-2,5
	c1.12,0.21,1.56,1.11,2,2C153.172,139.314,152.451,136.595,154.441,136.584z M152.441,165.584c6.35-9.291-8.35-9.291-2,0
	C151.111,165.584,151.771,165.584,152.441,165.584z M145.441,156.584c3.74-2.01,3.74-10.529,2-15c-9.29-6.04-28.99-1.68-43-3
	c0.27,6.061-1.08,13.74,2,17C117.231,157.533,136.162,156.434,145.441,156.584z M142.441,179.584c4.89-2.311,6.21-9.99,3-15
	c-8.03-5.631-25.38-1.949-38-3c0.19,5.811-0.94,12.939,2,16C119.011,179.104,135.461,178.775,142.441,179.584z M144.441,132.584
	c4.54-4.08,2.92-12.53-1-16c-11.14-2.2-26.23-0.43-39-1c0.23,6.44,0.53,12.8,3,17C117.531,134.234,134.352,134.234,144.441,132.584z
	 M112.441,198.584c9.52,7.42,33.51,6.301,29-9c-2.63-8.92-17.39-5.199-30-6C111.611,188.744,110.821,194.873,112.441,198.584z
	 M123.441,110.584c0-3.67,0-7.33,0-11c-19.67,0-39.33,0-59,0c-1.62,9.48,3.72,11.83,6,17c4.95,11.22,6.14,23.61,9,37
	c-3.78,2.879-8.97,4.359-15,5c0,9.33,0,18.67,0,28c14,0,28,0,42,0c-3.83-7.34-2.64-16.84-4-27c-0.39-2.939-2.53-5.909-3-9
	c-1.01-6.659,1.7-12.35,2-19c0.34-7.609-4.06-16.149,2-21C110.111,110.584,116.771,110.584,123.441,110.584z M74.441,151.584
	c-5.1-9.06-3.6-34.97-13-40c-9.48-5.07-17.36,1.63-18,10c-0.37,4.81,4.52,27.129,10,31
	C59.921,157.164,65.401,152.675,74.441,151.584z M56.441,199.584c0-13.33,0-26.67,0-40c-6.78-2.551-10.14-8.529-13-15
	C43.551,167.135,40.191,193.174,56.441,199.584z"/>
</svg>
