<?xml version="1.0" encoding="utf-8"?>
<!-- Generator: Adobe Illustrator 15.1.0, SVG Export Plug-In . SVG Version: 6.00 Build 0)  -->
<!DOCTYPE svg PUBLIC "-//W3C//DTD SVG 1.1//EN" "http://www.w3.org/Graphics/SVG/1.1/DTD/svg11.dtd">
<svg version="1.1" id="Layer_1" xmlns="http://www.w3.org/2000/svg" xmlns:xlink="http://www.w3.org/1999/xlink" x="0px" y="0px"
	 width="300px" height="300px" viewBox="0 0 300 300" enable-background="new 0 0 300 300" xml:space="preserve">
<path d="M264.532,42.771c4.72,4.274,3.95,16.371,3.95,24.78c0,56.314,0,110.045,0,167.68c0,12.882,1.732,24.005-6.911,28.498
	c-5.202,2.705-17.589,1.652-26.658,1.652c-57.085,0-112.963,0-170.311,0c-13.871,0-23.3,0.979-28.138-5.369
	c-3.342-4.38-2.468-15.604-2.468-25.193c0-43.32,0-91.716,0-134.64c0-6.117,0-16.393,0-26.846c0-15.6-3.796-31.038,11.354-33.867
	c6.324-1.181,18.961-0.412,28.139-0.412c53.557,0,108.748,0,163.893,0C249.299,39.055,259.35,38.08,264.532,42.771z
	 M228.002,148.914c6.641-19.584,6.665-45.467,0.494-65.667c-2.739-8.975-6.985-29.518-20.24-26.433
	c-10.737,2.499-4.482,11.126-1.48,17.76c5.717,12.622,8.944,23.792,8.886,40.474c-0.059,17.239-3.678,27.771-8.886,39.649
	c-1.807,4.121-5.308,8.718-4.937,11.978c0.375,3.271,4.512,7.314,10.86,6.607C220.909,172.364,225.4,156.588,228.002,148.914z
	 M217.636,241.016c0.528-2.062-0.978-5.718-1.481-8.262c-6.97,1.96-16.72,1.763-21.227-1.239
	c-14.524-9.672-0.089-34.273,21.227-24.366c0.82-2.756,1.648-5.505,2.468-8.261c-24.44-6.853-45.303,4.972-41.959,26.02
	C178.958,239.35,197.444,246.166,217.636,241.016z M193.446,142.718c5.298-15.119,6.546-36.864,0.987-53.69
	c-2.794-8.454-6.738-22.447-17.277-20.65c-3.165,0.537-7.291,2.8-7.404,7.021c-0.075,2.627,2.512,5.613,3.948,8.674
	c6.797,14.471,8.713,36.294,3.456,52.452c-1.61,4.952-8.018,13.868-7.404,18.585c0.518,3.993,5.528,6.806,9.872,6.608
	C187.507,161.357,190.851,150.132,193.446,142.718z M170.245,197.648c-10.861,0-21.721,0-32.581,0c0,14.732,0,29.46,0,44.193
	c3.055,0.675,9.285,0.675,12.341,0c0-5.783,0-11.566,0-17.349c6.254,0,12.505,0,18.758,0c0.807-2.031,0.807-6.64,0-8.672
	c-6.253,0-12.504,0-18.758,0c0.327-3.031-0.652-7.153,0.493-9.5c6.418,0,12.836,0,19.254,0
	C170.822,204.191,169.973,200.447,170.245,197.648z M145.068,146.849c10.41-0.727,15.49-23.975,14.315-36.758
	c-0.858-9.33-7.173-31.318-19.746-29.323c-10.53,1.673-2.839,14.108-0.988,18.999c3.233,8.542,4.152,17.672,0.493,25.606
	c-6.101-2.345-10.657-5.654-15.303-8.673c-10.361-6.732-17.9-11.684-29.125-18.999c-4.349-2.833-10.653-9.028-15.797-8.673
	c-6.911,0.479-9.295,12.629-9.873,19.825c-0.814,10.188,0.533,20.613,3.949,26.433c1.634,2.779,6.427,6.228,10.367,5.782
	c12.499-1.417,0.83-19.771,3.949-27.672c15.609,7.083,27.817,16.979,41.961,26.02C133.196,141.922,139.984,147.204,145.068,146.849z
	 M127.79,241.842c0-14.733,0-29.461,0-44.193c-3.786,0-7.567,0-11.354,0c-0.237,9.842,0.212,23.49,0.494,30.149
	c-5.075-11.035-12.5-20.104-18.759-30.149c-4.773,0-9.542,0-14.316,0c0,14.869,0,29.738,0,44.604
	c3.668-0.233,8.491,0.496,11.354-0.411c0.355-10.483-0.523-22.143,0-31.39c5.46,11.539,13.304,21.079,19.747,31.801
	C119.107,242.011,124.448,242.762,127.79,241.842z"/>
</svg>
