<?xml version="1.0" encoding="utf-8"?>
<!-- Generator: Adobe Illustrator 15.1.0, SVG Export Plug-In . SVG Version: 6.00 Build 0)  -->
<!DOCTYPE svg PUBLIC "-//W3C//DTD SVG 1.1//EN" "http://www.w3.org/Graphics/SVG/1.1/DTD/svg11.dtd">
<svg version="1.1" xmlns="http://www.w3.org/2000/svg" xmlns:xlink="http://www.w3.org/1999/xlink" x="0px" y="0px" width="96px"
	 height="96px" viewBox="0 0 96 96" enable-background="new 0 0 96 96" xml:space="preserve">
<g id="_x2D_background_dark_window" display="none">
	
		<linearGradient id="SVGID_1_" gradientUnits="userSpaceOnUse" x1="0" y1="48" x2="96" y2="48" gradientTransform="matrix(0 -1 1 0 0 96)">
		<stop  offset="0.2822" style="stop-color:#272D33"/>
		<stop  offset="0.4239" style="stop-color:#171A1E"/>
		<stop  offset="0.5903" style="stop-color:#0A0C0D"/>
		<stop  offset="0.7728" style="stop-color:#020303"/>
		<stop  offset="1" style="stop-color:#000000"/>
	</linearGradient>
	<rect display="inline" fill="url(#SVGID_1_)" width="96" height="96"/>
</g>
<g id="_x2D_background_dark_action_bar" display="none">
	<rect display="inline" fill="#58595B" width="96" height="96"/>
</g>
<g id="_x31_2_hardware_gamepad" display="none">
	<g display="inline">
		<g>
			<path fill="#333333" d="M45.754,61.857h4.494c2.608,0,4.73-2.122,4.73-4.731l0.002-0.062l2.836-40.316
				c-0.016-2.595-2.133-4.7-4.73-4.7h-10.17c-2.6,0-4.715,2.105-4.732,4.7l2.838,40.378C41.021,59.735,43.144,61.857,45.754,61.857z
				 M81.838,69.376l-5.604-7.664c-0.98-1.295-2.284-2.872-4.195-2.872H58.711l-0.014,0.208c-0.014,3.511-4.936,6.863-8.449,6.863
				h-4.494c-3.515,0-9.125-3.353-9.137-6.863l-0.014-0.208H23.962c-1.911,0-3.215,1.577-4.194,2.872l-5.604,7.664
				c-1.014,1.362-2.197,2.656-2.197,4.477v7.254c0,3.137,2.542,2.839,5.677,2.839h60.713c3.136,0,5.677,0.298,5.677-2.839v-7.254
				C84.033,72.032,82.852,70.738,81.838,69.376z M68.514,71.704c-4.503,0-8.153-0.828-8.153-1.849s3.65-1.848,8.153-1.848
				c4.504,0,8.153,0.827,8.153,1.848S73.018,71.704,68.514,71.704z"/>
		</g>
	</g>
</g>
<g id="_x31_2_hardware_mouse" display="none">
	<g display="inline">
		<g>
			<path fill="#333333" d="M72.904,45.025H23.213c-0.266,3.433-0.352,5.27-0.352,8.611c0,18.669,0,31.804,25.111,31.804
				s25.111-13.135,25.111-31.804C73.084,50.295,73.289,48.458,72.904,45.025z M51.002,10.562v28.578h21.826
				C70.846,24.314,66.116,11.129,51.002,10.562z M45.006,10.56c-17.081,0.505-20.24,13.721-21.653,28.581h21.653V10.56z"/>
		</g>
	</g>
</g>
<g id="_x31_2_hardware_headset" display="none">
	<g display="inline">
		<g>
			<path fill="#333333" d="M76.148,77.8V45.23c0-0.985-12.957-0.985-12.957,0V77.8C63.191,78.784,76.148,78.784,76.148,77.8z
				 M85.822,53.011V38.96c0-21.705-15.895-37.457-37.797-37.457c-21.904,0-37.803,15.752-37.803,37.457v13.978
				c-0.916,2.25-1.151,5.194-1.151,8.433c0,7.047,1.078,12.761,7.994,12.761v-25.52c-0.382,0-0.735,0.022-1.08,0.056V38.96
				c0-18.661,13.175-31.693,32.04-31.693c18.859,0,32.033,13.032,32.033,31.693v9.674c-0.357-0.037-0.729-0.06-1.123-0.06v25.52
				c0.123,0,0.229-0.016,0.349-0.02v16.488H60.918v-1.632H45.176v5.547h5.248v0.02h30.828c1.086,0,1.967-0.881,1.967-1.967V73.007
				c3.111-1.979,3.709-6.457,3.709-11.672C86.928,58.15,86.701,55.245,85.822,53.011z M19.849,44.905v32.57
				c0,0.984,12.96,0.984,12.96,0v-32.57C32.809,43.921,19.849,43.921,19.849,44.905z"/>
		</g>
	</g>
</g>
<g id="_x31_2_hardware_headphones" display="none">
	<g display="inline">
		<g>
			<path fill="#333333" d="M63.191,53.209V85.78c0,0.983,12.959,0.983,12.959,0V53.209C76.15,52.226,63.191,52.226,63.191,53.209z
				 M85.825,60.99V46.939c0-21.704-15.898-37.457-37.801-37.457c-21.905,0-37.802,15.753-37.802,37.457v13.978
				c-0.916,2.25-1.152,5.195-1.152,8.433c0,7.048,1.077,12.761,7.993,12.761v-25.52c-0.377,0-0.734,0.023-1.079,0.057v-9.708
				c0-18.661,13.175-31.693,32.04-31.693c18.861,0,32.035,13.032,32.035,31.693v9.675c-0.357-0.037-0.729-0.061-1.122-0.061v25.52
				c6.915,0,7.991-5.713,7.991-12.758C86.929,66.13,86.702,63.225,85.825,60.99z M19.851,52.885v32.571
				c0,0.983,12.959,0.983,12.959,0V52.885C32.81,51.901,19.851,51.901,19.851,52.885z"/>
		</g>
	</g>
</g>
<g id="_x31_2_hardware_keyboard" display="none">
	<g display="inline">
		<g>
			<path fill="#333333" d="M9.738,23.836H1.746v7.988h7.992V23.836z M25.582,23.836H15.018v7.859h10.564V23.836z M41.427,23.836
				H30.865v7.859h10.562V23.836z M57.146,23.836H46.584v7.859h10.562V23.836z M73.124,23.836H62.558v7.859h10.566V23.836z
				 M78.535,23.836v7.859h15.719v-7.859H78.535z M14.891,37.042H1.746v7.988h13.145V37.042z M20.301,44.902h10.564v-7.86H20.301
				V44.902z M46.838,37.042H36.275v7.86h10.563V37.042z M51.996,44.902h10.562v-7.86H51.996V44.902z M67.842,44.902h10.565v-7.86
				H67.842V44.902z M83.688,44.902h10.566v-7.86H83.688V44.902z M20.43,50.053H1.746v7.986H20.43V50.053z M25.326,57.91h10.565
				v-7.857H25.326V57.91z M51.994,50.053H41.427v7.857h10.567V50.053z M57.148,57.91h10.564v-7.857H57.148V57.91z M73.252,57.91
				h21.002v-7.857H73.252V57.91z M20.427,72.164h52.571v-7.861H20.427V72.164z"/>
		</g>
	</g>
</g>
<g id="_x31_2_hardware_dock" display="none">
	<g display="inline">
		<g>
			<path fill="#333333" d="M32.272,66.793l-4.876,6.936h40.481l-4.894-6.936H32.272z M16,22.271v38.94h64v-38.94H16z M75.824,56.991
				H20.178V26.449h55.646V56.991z"/>
		</g>
	</g>
</g>
<g id="_x31_2_hardware_computer" display="none">
	<path display="inline" fill="#333333" d="M72.565,61.523c0.005-0.06,0.02-0.116,0.02-0.176V31.155c0-1.273-1.032-2.308-2.307-2.308
		H25.484c-1.273,0-2.307,1.034-2.307,2.308v30.192c0,0.062,0.014,0.121,0.02,0.184L16,63.24l0.801,3.912h62.397L80,63.24
		L72.565,61.523z M67.705,58.439h-39.63V33.698h39.63V58.439z"/>
</g>
<g id="_x31_2_hardware_phone" display="none">
	<path display="inline" fill="#333333" d="M64.459,24.308c0,0-0.211-4.193-1.328-5.488c-1.135-1.31-2.576-1.615-3.629-1.837
		c-1.232-0.261-3.497-0.618-7.289-0.837C50.481,16.045,49.125,16,47.807,16c-1.162,0-2.213,0.033-3.55,0.075l-0.643,0.021
		c-2.561,0.078-4.599,0.277-5.469,0.362c-0.188,0.018-0.317,0.03-0.384,0.035c-0.09,0.007-0.359,0.024-0.465,0.223
		c-0.005,0.014-0.014,0.026-0.017,0.039c-0.397,0.067-1.414,0.252-2.219,0.502c-1.341,0.418-2.077,0.955-2.719,1.986
		c-0.586,0.943-0.701,2.529-0.744,3.126c-0.007,0.062-0.011,0.15-0.011,0.15l-0.151,45.541l0.218,4.111c0,0,0.839,4.365,1.68,5.312
		c0.763,0.862,1.769,1.376,3.26,1.663c0.16,0.03,0.311,0.061,0.457,0.09c1.124,0.224,2.012,0.4,5.104,0.563
		c0.311,0.017,0.613,0.031,0.912,0.049C44.47,79.927,45.799,80,47.574,80c1.261,0,2.653-0.036,4.262-0.111
		c5.623-0.27,8.412-0.591,10.068-1.793c1.63-1.183,2.001-2.929,2.249-4.084l0.011-0.049c0.287-1.347,0.399-5.329,0.399-5.329
		L64.459,24.308z M47.975,76.745c-0.968,0-1.751-0.784-1.751-1.751s0.783-1.75,1.751-1.75s1.752,0.783,1.752,1.75
		S48.942,76.745,47.975,76.745z M61.678,67.378H34.193V23.544h27.484V67.378z"/>
</g>
<g id="_x31_1_alerts_and_states_airplane_mode_on" display="none">
	<path display="inline" fill="#333333" d="M48.466,9.326c-3.438-0.012-4.874,8.078-4.874,11.197L43.494,37.81l-29.516,20
		l0.024,8.201L44.366,51.93l0.994,22.468l-12.4,8.361l0.023,3.867l14.99-3.363l14.833,3.412l-0.012-3.868l-11.137-8.409
		l0.711-22.149l29.652,13.886l-0.023-8.201L53.477,37.92l0.121-17.36C53.588,17.428,51.904,9.326,48.466,9.326z"/>
</g>
<g id="_x31_1_alerts_and_states_airplane_mode_off" display="none">
	<path display="inline" fill="#333333" d="M80.57,15.392c-2.461-2.511-6.738-1.851-12.338,3.819l-12.5,12.511L20.11,24.801
		l-5.877,5.99l31.969,11.851l-14.5,16.129l-14.941-2.939l-2.759,2.83l14.759,10.061l8.221,13.279l2.77-2.82l-1.959-14.24
		l15.499-14.66l11.34,31.711l5.88-5.99l-6.119-35.34l12.58-12.561C82.551,22.411,83.061,17.911,80.57,15.392z"/>
</g>
<g id="_x31_1_alerts_and_states_error" display="none">
	<path display="inline" fill="#333333" d="M60.648,17.002h-25.3l-18.348,18.35v25.297l18.348,18.35h25.3l18.351-18.35V35.352
		L60.648,17.002z M52.057,64.137h-8.084v-6.745h8.084V64.137z M52.057,53.363l-8.084,0.028v-24.24l8.084-0.028V53.363z"/>
</g>
<g id="_x31_1_alerts_and_states_warning" display="none">
	<path display="inline" fill="#333333" d="M81.937,73.199L51.046,19.7c-1.673-2.906-4.416-2.906-6.093,0L14.064,73.199
		c-1.678,2.905-0.307,5.28,3.045,5.28h61.785C82.244,78.479,83.611,76.104,81.937,73.199z M52.264,69.994H43.74v-8.249h8.523V69.994
		z M52.264,56.523H43.74V36.999h8.523V56.523z"/>
</g>
<g id="_x31_0_device_access_add_alarm" display="none">
	<g display="inline">
		<path fill-rule="evenodd" clip-rule="evenodd" fill="#333333" d="M59.699,30.311l2.951-1.057c-2.383-5.942-7-10.737-12.82-13.355
			l-1.066,2.968C53.709,21.159,57.641,25.25,59.699,30.311z"/>
		<path fill-rule="evenodd" clip-rule="evenodd" fill="#333333" d="M30.671,18.866l-1.062-2.968
			c-5.927,2.664-10.6,7.591-12.94,13.686l2.951,1.056C21.641,25.429,25.623,21.204,30.671,18.866z"/>
		<polygon fill-rule="evenodd" clip-rule="evenodd" fill="#333333" points="66.23,62.644 66.23,49.342 62.066,49.342 62.066,62.644 
			48.964,62.644 48.964,66.806 62.066,66.806 62.066,80.102 66.23,80.102 66.23,66.806 79.332,66.806 79.332,62.644 		"/>
		<path fill="#333333" d="M39.716,19.993c-10.188,0-18.443,8.257-18.443,18.444c0,10.188,8.255,18.444,18.443,18.444
			c10.188,0,18.447-8.257,18.447-18.444C58.163,28.25,49.904,19.993,39.716,19.993z M39.716,53.923
			c-8.551,0-15.484-6.933-15.484-15.486c0-8.551,6.934-15.485,15.484-15.485c8.554,0,15.487,6.935,15.487,15.485
			C55.203,46.99,48.271,53.923,39.716,53.923z"/>
		<polygon fill="#333333" points="40.029,25.942 38.071,25.942 37.396,38.545 37.572,39.863 46.998,48.25 48.487,46.723 
			40.692,38.368 		"/>
	</g>
</g>
<g id="_x31_0_device_access_alarms" display="none">
	<g display="inline">
		<path fill="#333333" d="M48.087,23.533c-15.202,0-27.521,12.321-27.521,27.521c0,15.201,12.319,27.521,27.521,27.521
			c15.201,0,27.525-12.32,27.525-27.521C75.612,35.854,63.288,23.533,48.087,23.533z M48.087,74.162
			c-12.76,0-23.105-10.346-23.105-23.107c0-12.76,10.346-23.107,23.105-23.107c12.764,0,23.109,10.348,23.109,23.107
			C71.196,63.816,60.851,74.162,48.087,74.162z"/>
		<polygon fill="#333333" points="48.554,32.41 45.631,32.41 44.624,51.215 44.887,53.184 58.951,65.697 61.174,63.418 
			49.542,50.951 		"/>
		<path fill="#333333" d="M63.175,17.424l-1.585,4.431c7.375,3.419,13.241,9.522,16.313,17.075l4.406-1.576
			C78.755,28.485,71.861,21.33,63.175,17.424z"/>
		<path fill="#333333" d="M34.589,21.854l-1.586-4.431C24.157,21.4,17.185,28.751,13.69,37.846l4.402,1.575
			C21.114,31.643,27.054,25.343,34.589,21.854z"/>
	</g>
</g>
<g id="_x31_0_device_access_time" display="none">
	<g display="inline">
		<path fill="#333333" d="M47.997,16.404C30.548,16.404,16.404,30.55,16.404,48c0,17.451,14.144,31.596,31.593,31.596
			c17.45,0,31.599-14.145,31.599-31.596C79.596,30.55,65.447,16.404,47.997,16.404z M47.997,74.527
			C33.351,74.527,21.473,62.65,21.473,48s11.878-26.527,26.524-26.527c14.655,0,26.53,11.877,26.53,26.527
			S62.652,74.527,47.997,74.527z"/>
		<polygon fill="#333333" points="48.534,26.596 45.179,26.596 44.026,48.186 44.325,50.443 60.469,64.809 63.021,62.193 
			49.666,47.883 		"/>
	</g>
</g>
<g id="_x31_0_device_access_screen_locked_to_portrait" display="none">
	<g display="inline">
		<path fill-rule="evenodd" clip-rule="evenodd" fill="#333333" d="M31.226,43.098c0-3.941,3.211-7.151,7.151-7.151
			c3.952,0,7.162,3.21,7.162,7.151v5.151H31.226V43.098z M50.031,48.249v-5.151c0-6.422-5.232-11.643-11.654-11.643
			s-11.652,5.221-11.652,11.643v5.151h-5.271v17.636h33.859V48.249H50.031z"/>
		<polygon fill="#333333" points="36.736,79.059 36.736,70.446 40.519,70.446 40.519,75.207 70.768,75.207 70.768,20.792 
			40.519,20.792 40.519,27.124 36.736,27.124 36.736,16.941 74.547,16.941 74.547,79.059 		"/>
	</g>
</g>
<g id="_x31_0_device_access_screen_locked_to_landscape" display="none">
	<g display="inline">
		<path fill-rule="evenodd" clip-rule="evenodd" fill="#333333" d="M41.297,47.271c0-3.951,3.211-7.162,7.152-7.162
			c3.951,0,7.162,3.211,7.162,7.162v4.721H41.297V47.271z M60.104,51.991v-4.721c0-6.422-5.232-11.653-11.654-11.653
			c-6.421,0-11.652,5.231-11.652,11.653v4.721h-5.271v18.695h33.859V51.991H60.104z"/>
		<polygon fill="#333333" points="79.059,63.814 69.715,63.814 69.715,59.964 75.207,59.964 75.207,29.164 20.792,29.164 
			20.792,59.964 27.133,59.964 27.133,63.814 16.941,63.814 16.941,25.313 79.059,25.313 		"/>
	</g>
</g>
<g id="_x31_0_device_access_screen_rotation" display="none">
	<g display="inline">
		<path fill-rule="evenodd" clip-rule="evenodd" fill="#333333" d="M19.118,40.042l20.744-20.745l36.671,36.66L55.777,76.703
			L19.118,40.042z M39.862,14.105L13.936,40.042l41.842,41.853l25.938-25.938L39.862,14.105z"/>
		<path fill="#333333" d="M53.929,15.975l-0.593,0.74l9.624,10.874l1.5-6.412c8.281,3.491,14.113,11.693,14.113,21.235h3.491
			c0-14.604-11.863-26.486-26.457-26.527l-0.06-0.02l-0.01,0.02l0,0L53.929,15.975z"/>
		<path fill="#333333" d="M43.944,81.143l0.6-0.74l-9.623-10.871l-1.5,6.412c-8.282-3.492-14.113-11.695-14.113-21.236h-3.492
			c0,14.604,11.864,26.486,26.448,26.525l0.06,0.02l0.022-0.02L43.944,81.143z"/>
	</g>
</g>
<g id="_x31_0_device_access_sd_storage" display="none">
	<path display="inline" fill="#333333" d="M65.962,17.146H35.646c-1.705,0-3.084,1.376-3.084,3.076v17.951l-5.598,5.592v4.681
		c0,1.267,1.525,0.967,1.525,0.967c1.455,0,1.711,1.221,1.711,1.698v1.841c0,1.311-0.395,1.635-1.051,2.157l-2.104,1.772v19.281
		c0,1.486,1.205,2.691,2.693,2.691h36.605c1.482,0,2.691-1.205,2.691-2.691V20.229C69.036,18.521,67.659,17.146,65.962,17.146z
		 M46.599,19.95h2.804v14.026h-2.804V19.95z M38.183,33.976H35.38V22.755h2.803V33.976z M43.792,33.976h-2.807V22.755h2.807V33.976z
		 M55.011,33.976h-2.807V22.755h2.807V33.976z M60.62,33.976h-2.804V19.95h2.804V33.976z M66.228,33.976h-2.799V22.755h2.799V33.976
		z"/>
</g>
<g id="_x31_0_device_access_usb" display="none">
	<g display="inline">
		<path fill="#333333" d="M70.162,27.569H59.084v11.08h2.768v4.265l-11.248,5.722V24.802h5.984l-8.589-11.775l-8.588,11.775h5.984
			V53.41l-11.246-4.876v-5.11c1.649-0.963,2.77-2.728,2.77-4.774c0-3.058-2.477-5.54-5.541-5.54c-3.061,0-5.54,2.482-5.54,5.54
			c0,2.047,1.12,3.811,2.771,4.774v8.749l16.786,7.277v7.359c-3.305,1.099-5.705,4.178-5.705,7.854c0,4.587,3.72,8.31,8.309,8.31
			c4.593,0,8.313-3.723,8.313-8.31c0-3.677-2.4-6.756-5.709-7.854V54.854l16.791-8.543v-7.661h2.768V27.569z"/>
	</g>
</g>
<g id="_x31_0_device_access_bluetooth_connected" display="none">
	<g display="inline">
		<g>
			<polygon fill="#333333" points="63.889,47.995 77.592,60.314 77.592,35.688 			"/>
		</g>
		<g>
			<path fill="#333333" d="M67.09,34.149L45.08,12.604V44.09L31.723,31.687l-3.138,3.387L42.509,48L28.585,60.93l3.138,3.383
				L45.08,51.914v31.482l22.01-21.545L53.238,46.461L67.09,34.149z M50.93,24.829l9.234,9.32l-9.234,7.695V24.829z M60.164,61.852
				l-9.234,9.32V51.848L60.164,61.852z"/>
		</g>
		<g>
			<polygon fill="#333333" points="18.408,35.688 18.408,60.314 32.105,48.004 			"/>
		</g>
	</g>
</g>
<g id="_x31_0_device_access_bluetooth_searching" display="none">
	<g display="inline">
		<g>
			<path fill="#333333" d="M32.001,13.135v31.014L18.844,31.932l-3.096,3.336L29.465,48L15.748,60.736l3.096,3.332l13.157-12.212
				v31.009l21.678-21.221l-13.644-15.16l13.644-12.127L32.001,13.135z M46.858,61.645l-9.097,9.179V51.791L46.858,61.645z
				 M37.762,41.938V25.177l9.097,9.181L37.762,41.938z M75.353,24.05l-3.769,2.21c2.961,6.813,4.53,14.346,4.53,21.847
				s-1.569,15.031-4.53,21.847l3.769,2.21c3.212-7.519,4.899-15.825,4.899-24.057C80.252,39.857,78.564,31.564,75.353,24.05z
				 M64.246,36.405c1.478,3.707,2.629,7.727,2.629,11.745c0,4.021-1.151,8.1-2.629,11.806l3.823,1.328
				c1.779-4.376,2.958-8.62,2.958-13.327c0-4.617-1.029-9.158-2.778-13.509L64.246,36.405z"/>
		</g>
	</g>
</g>
<g id="_x31_0_device_access_bluetooth" display="none">
	<path display="inline" fill="#333333" d="M67.255,34.149L45.246,12.604V44.09L31.889,31.687l-3.144,3.387L42.672,48L28.745,60.93
		l3.144,3.383l13.357-12.398v31.482l22.009-21.545L53.403,46.461L67.255,34.149z M51.095,24.829l9.235,9.32l-9.235,7.695V24.829z
		 M60.33,61.852l-9.235,9.32V51.848L60.33,61.852z"/>
</g>
<g id="_x31_0_device_access_storage_1_" display="none">
	<path display="inline" fill-rule="evenodd" clip-rule="evenodd" fill="#333333" d="M22,67h12.18v4H22V67z M18,61v14h60V61H18z
		 M22,47h12.18l-0.029,4h-12.18L22,47z M18,41v14h60V41H18z M22,27h12.18v4.029H22V27z M18,21v14h60V21H18z"/>
</g>
<g id="_x31_0_device_access_battery" display="none">
	<g display="inline">
		<g>
			<path fill="#333333" d="M56,25v-6H40v6h-9v52h34V25H56z M35,42V29h9v-6h8.001v6h9v13H35z"/>
		</g>
	</g>
</g>
<g id="_x31_0_device_access_network_wifi" display="none">
	<g display="inline">
		<g>
			<path fill="#333333" d="M10.627,31.826l7.371,8.988c8.176-6.662,18.622-10.67,30.001-10.67c11.37,0,21.815,4.008,30.003,10.68
				l7.371-8.998C63.678,14.148,32.32,14.148,10.627,31.826z M38.386,65.695l9.613,11.736l9.615-11.727
				c-2.588-2.309-5.952-3.709-9.615-3.709C44.327,61.996,40.974,63.396,38.386,65.695z M28.873,54.1l7.773,9.484
				c3.065-2.719,7.018-4.373,11.353-4.373c4.325,0,8.288,1.654,11.353,4.373l7.775-9.484c-5.225-4.25-11.877-6.811-19.128-6.811
				C40.749,47.289,34.086,49.85,28.873,54.1z M19.735,42.953l7.372,8.988c5.699-4.643,12.969-7.436,20.892-7.436
				c7.913,0,15.192,2.793,20.892,7.436l7.363-8.988C68.545,36.676,58.707,32.9,47.999,32.9C37.282,32.9,27.443,36.676,19.735,42.953
				z"/>
		</g>
	</g>
</g>
<g id="_x31_0_device_access_network_cell" display="none">
	<g display="inline">
		<rect x="11.423" y="58.907" fill="#333333" width="12.67" height="19.662"/>
		<rect x="31.584" y="45.082" fill="#333333" width="12.672" height="33.487"/>
		<rect x="51.744" y="31.257" fill="#333333" width="12.673" height="47.312"/>
		<rect x="71.907" y="17.431" fill="#333333" width="12.67" height="61.139"/>
	</g>
</g>
<g id="_x31_0_device_access_data_usage" display="none">
	<g display="inline">
		<g>
			<path fill="#333333" d="M48,18c-16.549,0-30,13.46-30,30c0,16.55,13.451,30,30,30c16.541,0,30-13.45,30-30
				C78,31.46,64.541,18,48,18z M21.791,50.216L28.5,47.89l-6.706-2.146c0.462-5.42,2.569-10.375,5.826-14.362l5.441,2.807
				l-2.74-5.659c4.14-3.763,9.483-6.22,15.375-6.734L48,28.721v18.648l14.308,15.809l-0.548-0.318l3.177,5.261
				c-4.104,3.463-9.276,5.69-14.945,6.117L48,68.25l-1.997,5.986c-6.013-0.454-11.47-2.931-15.681-6.761l2.727-5.655l-5.426,2.806
				C24.357,60.627,22.247,55.653,21.791,50.216z"/>
		</g>
	</g>
</g>
<g id="_x31_0_device_access_flash_automatic" display="none">
	<path display="inline" fill="#333333" d="M63.76,41.327L70.145,24H52.197l-4.851,25.203h8.974l-4.705,21.002h2.983L73.53,41.327
		H63.76z M34.283,58.034c-0.078-0.264-0.162-0.552-0.247-0.871c-0.083-0.321-0.168-0.636-0.246-0.956
		c-0.074-0.32-0.131-0.599-0.163-0.824c-0.026,0.143-0.058,0.31-0.1,0.504s-0.09,0.394-0.146,0.608l-0.163,0.651l-0.168,0.614
		l-0.142,0.515c-0.042,0.147-0.068,0.378-0.09,0.447l-0.897,3.081h3.439l-0.903-3.081C34.415,58.606,34.356,58.297,34.283,58.034z
		 M37.014,67.579l-0.961-3.149h-4.852l-0.971,3.149h-3.015l4.574-14.177h3.648l4.595,14.177H37.014z M33.448,50.048
		c-6.064,0-10.979,4.914-10.979,10.975C22.47,67.086,27.384,72,33.448,72c6.054,0,10.974-4.914,10.974-10.978
		C44.422,54.962,39.502,50.048,33.448,50.048z"/>
</g>
<g id="_x31_0_device_access_flash_off" display="none">
	<path display="inline" fill="#333333" d="M65.108,41.4L71.381,24H53.865l-4.797,25.307h8.759l-4.589,20.564h2.905L74.64,41.4
		H65.108z M41.676,72l-7.856-7.85L25.973,72l-4.613-4.605l7.852-7.854l-7.852-7.85l4.613-4.603l7.846,7.847l7.851-7.847l4.608,4.608
		l-7.845,7.844l7.845,7.854L41.676,72z"/>
</g>
<g id="_x31_0_device_access_flash_on" display="none">
	<path display="inline" fill="#333333" d="M51.421,42.064L58.002,24H39.505l-5.001,26.324h9.25L38.902,72h3.076l19.519-29.936
		H51.421z"/>
</g>
<g id="_x31_0_device_access_brightness_auto" display="none">
	<g display="inline">
		<g>
			<path fill="#333333" d="M47.927,40.047l-3.607,10.678h7.34l-3.607-10.678H47.927z M72.819,48.002l7.854-7.458L70.364,37.23
				L74.2,27.105l-10.725,1.491L62.54,17.81l-9.014,5.993l-5.525-9.314l-5.521,9.314l-9.02-5.993l-0.936,10.787L21.8,27.105
				l3.84,10.125l-10.312,3.313l7.854,7.458l-7.854,7.458l10.312,3.311L21.8,68.895l10.725-1.489l0.936,10.787l9.02-5.993
				l5.521,9.312l5.525-9.312l9.014,5.993l0.936-10.787L74.2,68.895l-3.836-10.124l10.309-3.311L72.819,48.002z M55.31,61.549
				l-2.115-6.262h-10.41l-2.115,6.262h-6.055L45.065,32.52h5.908l10.41,29.029H55.31z"/>
		</g>
	</g>
</g>
<g id="_x31_0_device_access_brightness_high" display="none">
	<g display="inline">
		<g>
			<path fill="#333333" d="M72.817,48.002l7.855-7.459l-10.309-3.313L74.2,27.105l-10.725,1.491L62.538,17.81l-9.012,5.993
				l-5.524-9.314l-5.522,9.314l-9.019-5.993l-0.937,10.787L21.8,27.105l3.84,10.124l-10.312,3.313l7.854,7.459l-7.854,7.457
				L25.64,58.77L21.8,68.895l10.725-1.489l0.937,10.787l9.019-5.993l5.522,9.312l5.524-9.312l9.012,5.993l0.938-10.787L74.2,68.895
				L70.364,58.77l10.309-3.311L72.817,48.002z M47.999,68.343c-11.234,0-20.342-9.108-20.342-20.343
				c0-11.235,9.107-20.343,20.342-20.343c11.235,0,20.344,9.107,20.344,20.343C68.343,59.234,59.234,68.343,47.999,68.343z
				 M47.999,31.523c-9.086,0-16.477,7.391-16.477,16.477c0,9.085,7.391,16.477,16.477,16.477S64.478,57.085,64.478,48
				C64.478,38.914,57.085,31.523,47.999,31.523z"/>
		</g>
	</g>
</g>
<g id="_x31_0_device_access_brightness_medium" display="none">
	<path display="inline" fill="#333333" d="M72.818,48.002l7.854-7.458L70.364,37.23l3.837-10.125l-10.726,1.491l-0.937-10.786
		l-9.014,5.993l-5.523-9.315l-5.522,9.315l-9.019-5.993l-0.937,10.786L21.8,27.105l3.841,10.125l-10.312,3.313l7.854,7.458
		l-7.854,7.458l10.312,3.311L21.8,68.895l10.725-1.488l0.937,10.787l9.019-5.993l5.522,9.312l5.523-9.312l9.014,5.993l0.937-10.787
		l10.726,1.488l-3.837-10.124l10.308-3.311L72.818,48.002z M47.07,68.342V27.656c11.236,0,20.342,9.109,20.342,20.346
		C67.412,59.236,58.307,68.342,47.07,68.342z"/>
</g>
<g id="_x31_0_device_access_bightness_low" display="none">
	<path display="inline" fill="#333333" d="M72.818,48.002l7.854-7.459L70.363,37.23l3.838-10.125l-10.725,1.492l-0.938-10.787
		l-9.012,5.992l-5.525-9.314l-5.523,9.314l-9.018-5.992l-0.936,10.787l-10.727-1.492l3.842,10.125l-10.312,3.312l7.854,7.459
		l-7.854,7.457l10.312,3.311l-3.842,10.125l10.727-1.488l0.936,10.787l9.018-5.994l5.523,9.312l5.525-9.312l9.012,5.994
		l0.938-10.787l10.725,1.488L70.363,58.77l10.309-3.311L72.818,48.002z M47.072,68.342v-0.096H47.07
		c-11.207,0-20.295-9.086-20.295-20.295c0-11.207,9.088-20.295,20.295-20.295h0.002l0,0c0.373,0,0.736,0.037,1.105,0.057
		c0.322,0.018,0.65,0.018,0.969,0.049c10.26,1.039,18.268,9.703,18.268,20.24C67.414,59.236,58.307,68.342,47.072,68.342z"/>
</g>
<g id="_x31_0_device_access_volume_on" display="none">
	<g display="inline">
		<g>
			<path fill-rule="evenodd" clip-rule="evenodd" fill="#333333" d="M77.045,24.12l-3.766,2.21
				c2.959,6.814,4.529,14.345,4.529,21.846c0,7.5-1.57,15.031-4.529,21.846l3.766,2.211c3.213-7.518,4.9-15.824,4.9-24.057
				C81.945,39.929,80.258,31.636,77.045,24.12z M65.939,36.477c1.479,3.706,2.629,7.725,2.629,11.744s-1.15,8.1-2.629,11.805
				l3.822,1.328c1.781-4.377,2.959-8.621,2.959-13.327c0-4.617-1.029-9.159-2.777-13.508L65.939,36.477z M58.277,44.32
				c1.152,2.499,1.133,5.729-0.049,8.861l3.492,1.32c1.535-4.064,1.518-8.344-0.049-11.744L58.277,44.32z M47.705,12.98h-5.951
				c-1.865,0-10.29,13.161-15.672,21.887h-8.238c-2.088,0-3.789,5.83-3.789,13.134s1.701,13.132,3.789,13.132h4.435v0.047h2.96
				c5.412,8.205,14.68,21.84,16.516,21.84h5.79c3.827,0,6.702-15.76,6.702-35.094C54.246,28.59,51.521,12.98,47.705,12.98z
				 M46.648,78.256c-1.765,0-4.169-8.674-5.072-20.68c2.455-1.502,4.195-5.219,4.195-9.575c0-4.368-1.74-8.073-4.195-9.576
				c0.903-12.018,3.308-20.68,5.072-20.68c2.202,0,3.98,13.544,3.98,30.256C50.629,64.697,48.851,78.256,46.648,78.256z"/>
		</g>
	</g>
</g>
<g id="_x31_0_device_access_volume_muted" display="none">
	<g display="inline">
		<g>
			<path fill-rule="evenodd" clip-rule="evenodd" fill="#333333" d="M77.289,19.094l-61.91,55.96l3.33,3.993l61.912-55.963
				L77.289,19.094z M25.399,61.12h0.454L50.08,39.239c-0.324-0.313-0.674-0.584-1.037-0.804c0.896-12.019,3.293-20.676,5.055-20.676
				c1.453,0,2.711,5.924,3.41,14.766l3.241-2.931C59.646,19.625,57.625,13,55.148,13h-5.924c-1.867,0-10.254,13.159-15.619,21.883
				h-8.206c-2.087,0-3.786,5.82-3.786,13.119C21.613,55.299,23.312,61.12,25.399,61.12z M58.053,49.529
				c-0.104,15.984-1.828,28.715-3.955,28.715c-1.749,0-4.146-8.621-5.042-20.559L37.441,68.172C42.38,75.43,47.85,83,49.225,83h5.77
				c3.811,0,6.675-15.751,6.675-35.077l-0.014-1.646L58.053,49.529z"/>
		</g>
	</g>
</g>
<g id="_x31_0_device_access_switch_camera" display="none">
	<g display="inline">
		<path fill-rule="evenodd" clip-rule="evenodd" fill="#333333" d="M10.46,55.365c0,2.961,8.439,7.939,23.53,9.791l0.03-5.631
			l12.91,9.07l-13.011,7.93l0.051-5.77c-14.41-1.721-27.821-6.07-27.821-15.391c0-3.119,4.141-6.27,10.681-7.851l0.061,2.312
			C12.74,51.635,10.46,53.666,10.46,55.365z M53.34,71.555l-0.039-6.398c21.22-0.121,32.289-5.762,32.289-9.922
			c0-1.398-1.58-3.039-4.5-4.6l-0.049-2.35c5.01,1.65,8.81,3.93,8.81,6.949C89.851,64.346,73.791,71.445,53.34,71.555z"/>
		<path fill-rule="evenodd" clip-rule="evenodd" fill="#333333" d="M35.5,21.995v-1.521h-7v4L35.5,21.995z M57.5,38.975
			c0-4.689-3.811-8.5-8.5-8.5s-8.5,3.811-8.5,8.5c0,4.69,3.811,8.5,8.5,8.5S57.5,43.665,57.5,38.975z M71.431,22.524h-15.14
			l0.039-3.05l-14.66,0.01l-0.05,3.051l-2.55-0.011l-12.561,4.95v26H71.48C71.53,53.484,71.431,22.524,71.431,22.524z M61.24,38.975
			c0,6.76-5.48,12.24-12.24,12.24s-12.24-5.48-12.24-12.24s5.48-12.24,12.24-12.24S61.24,32.215,61.24,38.975z"/>
	</g>
</g>
<g id="_x31_0_device_access_switch_video" display="none">
	<path display="inline" fill-rule="evenodd" clip-rule="evenodd" fill="#333333" d="M10.46,53.365c0,2.96,8.439,7.94,23.53,9.79
		l0.029-5.631l12.91,9.07l-13.01,7.93l0.05-5.77c-14.409-1.72-27.82-6.07-27.82-15.39c0-3.12,4.14-6.27,10.681-7.85l0.06,2.31
		C12.74,49.636,10.46,51.665,10.46,53.365z M21.569,47.535l0.021-20.78c0-2.92,2.37-5.279,5.29-5.279h34.61l-0.15,30.99
		l-34.59-0.051C23.83,52.415,21.569,50.455,21.569,47.535z M64.5,43.415v-13l10.38-5.939h2.62l-0.061,24.75l-2.4,0.049L64.5,43.415z
		 M53.34,69.556l-0.04-6.4c21.22-0.12,32.29-5.76,32.29-9.92c0-1.4-1.58-3.04-4.5-4.6l-0.051-2.351
		c5.011,1.65,8.812,3.931,8.812,6.95C89.851,62.345,73.789,69.445,53.34,69.556z"/>
</g>
<g id="_x31_0_device_access_camera">
	<g>
		<path fill="#333333" d="M60.355,51.07c0,6.84-5.543,12.386-12.379,12.386c-6.84,0-12.387-5.546-12.387-12.386
			c0-6.835,5.547-12.38,12.387-12.38C54.812,38.69,60.355,44.235,60.355,51.07z"/>
		<path fill="#333333" d="M81.607,27.451H58.759v-2.567c0-3.407,0-3.051,0-3.051h-21.31c0,0,0-0.356,0,3.051v2.567
			c0,0-2.291-0.037-4.234,0c-1.943,0.033-4.135,0.762-4.135,0.762l-14.708,4.751c0,0,0.034,2.062,0,3.537
			c-0.038,1.473,0,34.597,0,34.597c0,1.701,0,3.08,0,3.08s67.156-0.006,67.235,0c0.084,0.008,0-1.379,0-3.08V30.531
			C81.607,28.831,81.607,27.451,81.607,27.451z M47.977,69.164c-9.997,0-18.096-8.102-18.096-18.092
			c0-9.993,8.099-18.095,18.096-18.095c9.99,0,18.092,8.103,18.092,18.095C66.068,61.062,57.967,69.164,47.977,69.164z"/>
		<path fill="#333333" d="M27.922,25.881l-10.757,3.645v-4.934c0-0.525,0-0.949,0-0.949h10.757c0,0,0,0.424,0,0.949V25.881z"/>
	</g>
</g>
<g id="_x31_0_device_access_video" display="none">
	<g display="inline">
		<g>
			<polygon fill="#333333" points="75.653,33.492 63.739,40.549 63.739,55.088 75.653,62.186 78.636,62.186 78.636,33.492 			"/>
		</g>
		<g>
			<g>
				<path fill="#333333" d="M17.364,36.325v23.343c0,3.211,2.596,5.807,5.799,5.807h37.678V30.525H23.163
					C19.96,30.525,17.364,33.117,17.364,36.325z"/>
			</g>
		</g>
	</g>
</g>
<g id="_x31_0_device_access_mic_muted" display="none">
	<path display="inline" fill="#333333" d="M67.901,43.372l-4.581,0.025v6.796c0,8.494-6.842,12.542-15.251,12.542
		c-3.651,0-7.005-0.765-9.634-2.321l3.554-3.554c1.738,0.793,3.845,1.262,6.12,1.262c5.943,0,10.754-3.168,10.754-7.079V40.005
		l13.885-13.882l-3.217-3.212L58.863,33.578V22.183c0-3.91-4.811-7.079-10.754-7.079c-5.938,0-10.753,3.169-10.753,7.079v28.86
		c0,1.074,0.373,2.087,1.022,2.998l-3.341,3.34c-1.403-1.886-2.226-4.267-2.226-7.188v-6.796l-4.42-0.025
		c0,0-0.522,0.829-0.522,1.798c0,0.97,0.522,1.432,0.522,1.432h1.791v3.587c0,3.628,0.982,6.659,2.984,9.063l-9.916,9.917
		l3.215,3.212l10.185-10.184c1.688,1.029,3.705,1.856,6.081,2.459v3.436c0,0,1.055,0.528,3.582,0.714v3.652
		c-8.976,0.364-14.335,1.789-14.335,3.497c0,0.31,0,1.046,0,1.357c0,1.977,7.219,3.584,16.13,3.584c8.907,0,16.13-1.607,16.13-3.584
		c0-0.312,0-1.048,0-1.357c0-1.708-5.365-3.133-14.337-3.497v-3.652c2.533-0.186,3.584-0.714,3.584-0.714v-3.47
		c8.47-2.215,12.546-7.31,12.546-14.434v-3.587h1.869c0,0,0.818-0.466,0.818-1.516C68.72,44.043,67.901,43.372,67.901,43.372z"/>
</g>
<g id="_x31_0_device_access_mic" display="none">
	<g display="inline">
		<g>
			<path fill="#333333" d="M67.605,43.372l-4.58,0.025v6.796c0,8.494-6.842,12.542-15.251,12.542
				c-8.415,0-15.257-4.048-15.257-12.542v-6.796l-4.42-0.025c0,0-0.522,0.829-0.522,1.798c0,0.97,0.522,1.432,0.522,1.432h1.791
				v3.587c0,7.389,4.053,12.315,12.549,14.468v3.436c0,0,1.056,0.528,3.582,0.714v3.652c-8.976,0.364-14.335,1.789-14.335,3.497
				v1.357c0,1.977,7.219,3.584,16.13,3.584c8.907,0,16.129-1.607,16.129-3.584v-1.357c0-1.708-5.365-3.133-14.337-3.497v-3.652
				c2.534-0.186,3.585-0.714,3.585-0.714v-3.47c8.469-2.215,12.545-7.31,12.545-14.434v-3.587h1.869c0,0,0.82-0.466,0.82-1.516
				C68.426,44.043,67.605,43.372,67.605,43.372z M47.814,58.122c5.944,0,10.754-3.168,10.754-7.079v-28.86
				c0-3.91-4.811-7.079-10.754-7.079c-5.938,0-10.753,3.169-10.753,7.079v28.86C37.061,54.954,41.875,58.122,47.814,58.122z"/>
		</g>
	</g>
</g>
<g id="_x31_0_device_access_location_off" display="none">
	<g display="inline">
		<polygon fill="#333333" points="58.924,39.953 59.164,39.709 56.27,36.799 47.99,45.104 39.957,37.039 39.713,36.799 
			36.812,39.709 45.094,48.008 37.055,56.068 36.812,56.311 39.713,59.221 47.99,50.916 56.025,58.977 56.27,59.221 59.168,56.311 
			50.889,48.008 		"/>
		<path fill="#333333" d="M83.145,45.945l-8.324,0.014c-1.002-13.26-11.621-23.838-24.885-24.789l-0.016-8.33l-3.979,0.007
			l0.016,8.333C32.7,22.182,22.121,32.801,21.172,46.062l-8.33,0.018l0.004,3.973l8.33-0.016
			C22.18,63.295,32.8,73.871,46.062,74.822l0.014,8.338l3.977-0.006l-0.018-8.338c13.26-1.002,23.836-11.621,24.791-24.885
			l8.332-0.014L83.145,45.945z M48.039,70.945c-12.654,0.025-22.965-10.248-22.988-22.901
			c-0.027-12.655,10.248-22.972,22.901-22.997c12.657-0.023,22.974,10.252,22.997,22.909C70.977,60.609,60.693,70.922,48.039,70.945
			z"/>
	</g>
</g>
<g id="_x31_0_device_access_location_found" display="none">
	<g display="inline">
		<path fill="#333333" d="M47.971,34.049c-7.702,0.013-13.939,6.273-13.926,13.979c0.016,7.702,6.277,13.938,13.98,13.921
			c7.703-0.014,13.941-6.271,13.924-13.976C61.939,40.268,55.68,34.032,47.971,34.049z"/>
		<path fill="#333333" d="M83.145,45.945l-8.325,0.014c-1.001-13.26-11.62-23.838-24.885-24.789l-0.016-8.33l-3.978,0.007
			l0.016,8.333C32.7,22.182,22.121,32.801,21.172,46.062l-8.33,0.018l0.006,3.973l8.328-0.016
			c1.005,13.258,11.625,23.834,24.888,24.785l0.013,8.338l3.977-0.006l-0.018-8.338c13.26-1.002,23.836-11.621,24.791-24.885
			l8.332-0.014L83.145,45.945z M48.039,70.945c-12.654,0.025-22.965-10.248-22.987-22.901
			c-0.027-12.655,10.247-22.972,22.901-22.997c12.656-0.023,22.973,10.252,22.995,22.909C70.976,60.609,60.693,70.922,48.039,70.945
			z"/>
	</g>
</g>
<g id="_x31_0_device_access_location_searching" display="none">
	<g display="inline">
		<path fill="#333333" d="M83.146,45.945l-8.326,0.014c-1-13.26-11.621-23.838-24.885-24.789l-0.016-8.33l-3.977,0.007l0.014,8.333
			C32.7,22.182,22.12,32.801,21.173,46.062l-8.33,0.018l0.004,3.973l8.33-0.016C22.181,63.295,32.8,73.871,46.063,74.822
			l0.014,8.338l3.977-0.006l-0.02-8.338c13.262-1.002,23.838-11.621,24.793-24.885l8.33-0.014L83.146,45.945z M48.04,70.945
			c-12.654,0.025-22.966-10.248-22.988-22.901c-0.027-12.655,10.246-22.972,22.9-22.997c12.657-0.023,22.975,10.252,22.996,22.909
			C70.976,60.609,60.694,70.922,48.04,70.945z"/>
	</g>
</g>
<g id="_x31_0_device_access_not_secure" display="none">
	<path display="inline" fill="#333333" d="M64.641,48.295V30.801c0-8.153-5.713-16.408-16.641-16.408s-16.645,8.255-16.645,16.408
		v10.658h7.008V30.801c0-4.531,3.015-9.401,9.637-9.401c6.621,0,9.637,4.87,9.637,9.401v17.494H23.125v33.312h49.75V48.295H64.641z"
		/>
</g>
<g id="_x31_0_device_access_secure" display="none">
	<path display="inline" fill="#333333" d="M64.641,44.917V34.178c0-8.153-5.713-16.407-16.641-16.407s-16.644,8.254-16.644,16.407
		v10.739h-8.231v33.312h49.75V44.917H64.641z M38.363,34.178c0-4.53,3.016-9.401,9.637-9.401s9.637,4.871,9.637,9.401v10.739H38.363
		V34.178z"/>
</g>
<g id="_x31_0_device_access_new_account" display="none">
	<g display="inline">
		<g>
			<g>
				<polygon fill-rule="evenodd" clip-rule="evenodd" fill="#333333" points="66.656,66.568 66.656,53.139 62.455,53.139 
					62.455,66.568 49.22,66.568 49.22,70.771 62.455,70.771 62.455,84.197 66.656,84.197 66.656,70.771 79.891,70.771 
					79.891,66.568 				"/>
			</g>
		</g>
		<g>
			<path fill="#333333" d="M16.109,56.246v7.018h7.016l2.343-2.338v-4.68h4.677v-4.68h4.68l8.854-8.856
				c2.253,1.171,4.802,1.839,7.517,1.839c9.041,0,16.374-7.33,16.374-16.374c0-9.039-7.333-16.372-16.374-16.372
				s-16.371,7.333-16.371,16.372c0,2.715,0.67,5.266,1.836,7.52L16.109,56.246z M51.195,23.496c0-2.581,2.095-4.675,4.682-4.675
				c2.582,0,4.674,2.094,4.674,4.675c0,2.587-2.092,4.679-4.674,4.679C53.29,28.175,51.195,26.083,51.195,23.496z"/>
		</g>
	</g>
</g>
<g id="_x31_0_device_access_accounts" display="none">
	<g display="inline">
		<path fill="#333333" d="M55.407,45.371c1.666-3.223,2.629-6.876,2.629-10.756c0-12.932-10.488-23.42-23.421-23.42
			c-12.931,0-23.419,10.488-23.419,23.42c0,12.935,10.488,23.422,23.419,23.422c3.881,0,7.531-0.959,10.751-2.629l12.67,12.664
			h6.693c0,0.006,0,6.693,0,6.693h6.688v6.693l3.35,3.346h10.037V74.766L55.407,45.371z M27.922,34.615
			c-3.693,0-6.688-2.995-6.688-6.692c0-3.694,2.995-6.689,6.688-6.689c3.698,0,6.693,2.995,6.693,6.689
			C34.615,31.62,31.62,34.615,27.922,34.615z"/>
	</g>
</g>
<g id="_x31_0_device_access_dial_pad" display="none">
	<g display="inline">
		<g>
			<path fill="#333333" d="M20.943,25.326h13.806V11.967H20.943V25.326z M40.929,25.396H54.97V11.967H40.929V25.396z M20.943,45.12
				h13.806V31.598H20.943V45.12z M40.742,44.979H54.97V31.598H40.742V44.979z M75.057,11.967H61.18v13.452h13.877V11.967z
				 M61.18,31.598v13.382h13.947V31.598H61.18z M20.873,64.502h13.876V50.979H20.873V64.502z M40.742,64.432H54.97v-13.34H40.742
				V64.432z M61.18,64.432h13.877V51.049H61.18V64.432z M40.742,84.033H54.97V70.482H40.742V84.033z"/>
		</g>
	</g>
</g>
<g id="_x31_0_device_access_ring_volume" display="none">
	<g display="inline">
		<g>
			<path fill="#333333" d="M79.051,64.943c-0.095-0.097-0.209-0.18-0.315-0.256l-0.005-0.019l-13.628-9.742l-0.019,0.01
				c-0.907-0.67-2.189-0.603-3.021,0.227c-0.076,0.08-0.148,0.172-0.215,0.27c-0.042,0.054-0.084,0.105-0.118,0.166
				c-0.912,1.309-0.905,1.477-1.646,2.615c-1.05,1.645-2.261,4.184-3.459,7.072c-3.829-0.592-9.526-3.915-15.76-10.153
				c-6.235-6.232-9.559-11.931-10.142-15.757c2.884-1.2,5.419-2.413,7.073-3.457c1.126-0.742,1.294-0.733,2.611-1.645
				c0.053-0.041,0.108-0.076,0.167-0.116l0.005-0.009c0.086-0.062,0.183-0.13,0.263-0.214c0.826-0.826,0.893-2.106,0.229-3.024
				v-0.016l-9.735-13.629h-0.021c-0.083-0.113-0.161-0.219-0.26-0.321c-0.838-0.83-2.148-0.891-3.062-0.192
				c-6.524,4.477-12.431,9.39-11.655,15.207c0.827,6.241,8.266,19.988,17.99,29.713c9.727,9.724,23.48,17.166,29.713,17.985
				c5.817,0.782,10.733-5.12,15.209-11.65C79.947,67.09,79.891,65.784,79.051,64.943z M73.188,46.063l3.183-0.829
				c-2.292-5.709-5.813-11.027-10.194-15.408c-4.388-4.389-9.698-7.902-15.407-10.193l-0.829,3.183
				c5.202,2.05,10.043,5.224,14.034,9.214S71.137,40.861,73.188,46.063z M52.65,29.074l-1.089,3.172
				c2.759,1.186,5.511,2.712,7.647,4.85c2.139,2.141,3.698,4.923,4.881,7.681l2.742-1.327c-1.382-3.275-3.012-6.161-5.518-8.666
				C58.861,32.327,55.894,30.458,52.65,29.074z"/>
		</g>
	</g>
</g>
<g id="_x31_0_device_access_end_call" display="none">
	<path display="inline" fill="#333333" d="M9.247,61.506c0.168,1.223,1.196,2.164,2.468,2.166c0.145,0,0.293-0.02,0.433-0.047
		l0.017,0.012l17.67-2.938l0.005-0.023c1.195-0.18,2.112-1.199,2.115-2.457c-0.004-0.117-0.019-0.24-0.04-0.363h-0.001
		c-0.009-0.074-0.018-0.145-0.038-0.217c-0.298-1.68-0.43-1.801-0.731-3.221c-0.45-2.037-1.454-4.873-2.73-7.961
		c3.342-2.449,10.163-4.246,19.592-4.243c9.426-0.005,16.25,1.792,19.583,4.243c-1.273,3.088-2.274,5.922-2.734,7.961
		c-0.293,1.414-0.424,1.535-0.73,3.219c-0.01,0.072-0.024,0.139-0.038,0.215c0,0-0.004,0.004,0.001,0.01
		c-0.018,0.113-0.039,0.236-0.037,0.359c-0.001,1.248,0.916,2.268,2.113,2.459l0.012,0.012l17.665,2.943l0.017-0.016
		c0.145,0.023,0.287,0.043,0.438,0.047c1.261-0.006,2.298-0.951,2.461-2.17c1.55-8.318,2.301-16.498-2.683-20.31
		c-5.346-4.093-21.361-8.86-36.066-8.858c-14.708,0.004-30.731,4.777-36.065,8.871C6.949,45.006,7.695,53.186,9.247,61.506"/>
</g>
<g id="_x31_0_device_access_call" display="none">
	<path display="inline" fill="#333333" d="M81.418,69.391c0.746-0.981,0.685-2.376-0.213-3.276
		c-0.103-0.102-0.222-0.192-0.339-0.272l-0.004-0.021L66.29,55.405l-0.02,0.012c-0.973-0.718-2.342-0.646-3.232,0.242
		c-0.082,0.086-0.157,0.184-0.229,0.285v0.002c-0.047,0.058-0.09,0.113-0.127,0.18c-0.978,1.398-0.969,1.576-1.76,2.794
		c-1.123,1.759-2.417,4.474-3.698,7.561c-4.095-0.632-10.189-4.185-16.854-10.854c-6.669-6.664-10.224-12.758-10.847-16.848
		c3.083-1.283,5.796-2.579,7.563-3.696c1.207-0.793,1.385-0.785,2.792-1.759c0.057-0.044,0.115-0.081,0.178-0.125
		c0,0,0.006,0,0.006-0.007c0.092-0.068,0.195-0.141,0.281-0.229c0.884-0.883,0.956-2.252,0.244-3.233v-0.017L30.179,15.141h-0.023
		c-0.086-0.119-0.172-0.234-0.276-0.343c-0.896-0.888-2.296-0.953-3.274-0.206C19.627,19.377,13.312,24.63,14.141,30.85
		c0.886,6.674,8.839,21.372,19.239,31.767c10.403,10.397,25.109,18.353,31.775,19.23C71.376,82.683,76.631,76.372,81.418,69.391"/>
</g>
<g id="_x39__av_make_available_offline" display="none">
	<path display="inline" fill="#333333" d="M34.795,58.398c-7.098-7.576-10.75-15.39-8.219-17.92l2.117-2.124
		c1.99-1.984,7.233-0.156,13.051,4.146L54.889,29.36c-3.295-4.373-4.854-8.014-3.653-9.214l2.681-2.685
		c1.746-1.742,8.674,2.351,15.471,9.149c6.799,6.799,10.896,13.727,9.15,15.473l-2.68,2.683c-1.205,1.197-4.847-0.359-9.215-3.655
		l-13.141,13.14c4.304,5.825,6.131,11.065,4.146,13.052l-2.122,2.122c-2.535,2.532-10.35-1.121-17.926-8.217l-7.585,7.584
		L17.998,78.939l-0.938-0.934l10.148-12.023L34.795,58.398z"/>
</g>
<g id="_x39__av_upload" display="none">
	<path display="inline" fill="#333333" d="M14.381,69.493v6.015h67.238l-0.016-6.015H14.381z M47.718,20.492l16.366,22.325h-10.21
		v20.836H41.662V42.817H31.348L47.718,20.492z"/>
</g>
<g id="_x39__av_download" display="none">
	<path display="inline" fill="#333333" d="M14.381,69.493v6.014h67.238l-0.016-6.014H14.381z M47.716,63.654L31.349,41.329h10.209
		V20.493h12.214v20.836h10.312L47.716,63.654z"/>
</g>
<g id="_x39__av_return_from_full_screen" display="none">
	<g display="inline">
		<polygon fill="#333333" points="51.83,44.151 55.094,22.966 60.684,28.558 72.093,17.15 78.775,23.837 67.368,35.244 
			73.018,40.89 		"/>
		<polygon fill="#333333" points="44.172,51.85 40.908,73.033 35.318,67.441 23.908,78.85 17.222,72.166 28.631,60.758 
			22.985,55.109 		"/>
		<polygon fill="#333333" points="44.168,44.101 22.982,40.835 28.572,35.241 17.166,23.833 23.851,17.15 35.26,28.558 
			40.906,22.911 		"/>
		<polygon fill="#333333" points="51.83,51.902 73.018,55.168 67.426,60.758 78.834,72.166 72.146,78.85 60.738,67.441 
			55.094,73.088 		"/>
	</g>
</g>
<g id="_x39__av_full_screen" display="none">
	<g display="inline">
		<polygon fill="#333333" points="78.842,17.161 75.576,38.341 69.99,32.751 58.586,44.157 51.9,37.47 63.305,26.067 57.661,20.419 
					"/>
		<polygon fill="#333333" points="17.158,78.84 20.423,57.662 26.011,63.252 37.415,51.846 44.101,58.529 32.695,69.934 
			38.341,75.582 		"/>
		<polygon fill="#333333" points="17.158,17.158 38.341,20.419 32.751,26.013 44.155,37.419 37.47,44.101 26.063,32.696 
			20.421,38.341 		"/>
		<polygon fill="#333333" points="78.842,78.842 57.661,75.58 63.251,69.988 51.847,58.584 58.529,51.902 69.937,63.307 
			75.58,57.662 		"/>
	</g>
</g>
<g id="_x39__av_repeat" display="none">
	<g display="inline">
		<path fill="#333333" d="M77.19,46.644c0.064,0.509,0.107,1.024,0.107,1.554c0,7.301-5.942,13.242-13.244,13.242H28.288V49.474
			L9.634,64.552l18.654,15.073V68.449h35.766c11.17,0,20.255-9.083,20.255-20.252c0-2.256-0.381-4.479-1.129-6.625L77.19,46.644z"/>
		<path fill="#333333" d="M18.805,49.358c-0.064-0.508-0.102-1.027-0.102-1.554c0-7.301,5.942-13.245,13.243-13.245h35.767v11.966
			L86.366,31.45L67.713,16.375V27.55H31.946c-11.169,0-20.256,9.086-20.256,20.255c0,2.253,0.377,4.477,1.129,6.625L18.805,49.358z"
			/>
	</g>
</g>
<g id="_x39__av_shuffle" display="none">
	<g display="inline">
		<path fill="#333333" d="M11.4,33.287c4.7,0.011,9.164,1.079,13.641,3.26c3.926,1.931,7.828,4.739,11.61,8.354
			c0.35-0.38,0.697-0.768,1.043-1.158c1.493-1.712,3.084-3.385,4.738-4.985c-3.791-3.334-7.635-5.938-11.734-7.951
			c-5.963-2.947-12.55-4.503-19.117-4.503c-0.634,0-1.256,0.025-1.865,0.055L8.49,26.414v7.002l1.354-0.082
			C10.362,33.309,10.878,33.287,11.4,33.287z"/>
		<path fill="#333333" d="M65.191,37.482c1.225-0.598,2.444-1.105,3.664-1.537v10.58L87.51,31.45L68.855,16.375v12
			c-3.205,0.758-6.343,1.883-9.323,3.358c-6.622,3.263-12.696,8.119-18.578,14.85c-5.119,5.87-10.473,10.201-15.916,12.873
			c-4.474,2.185-8.938,3.252-13.64,3.263c-0.521,0-1.04-0.021-1.556-0.054L8.49,62.587v7.006l1.224,0.057
			c0.611,0.025,1.233,0.054,1.867,0.054h0.068c6.488,0,13.074-1.555,19.049-4.502c6.617-3.256,12.69-8.113,18.572-14.851
			C54.382,44.481,59.74,40.15,65.191,37.482z"/>
		<path fill="#333333" d="M68.855,60.06c-1.221-0.433-2.44-0.939-3.666-1.538c-3.588-1.763-7.18-4.277-10.683-7.486
			c-0.659,0.691-1.319,1.404-1.975,2.156c-1.183,1.354-2.431,2.693-3.726,3.986c3.473,2.926,6.99,5.251,10.726,7.092
			c2.982,1.471,6.12,2.596,9.323,3.354v12.002L87.51,64.549L68.855,49.474V60.06z"/>
	</g>
</g>
<g id="_x39__av_add_to_queue" display="none">
	<g display="inline">
		<polygon fill="#333333" points="29.207,34.452 66.797,34.452 66.797,61.554 72.081,61.554 72.081,29.17 29.207,29.17 		"/>
		<polygon fill="#333333" points="50.34,18.603 50.34,23.884 77.363,23.884 77.363,48.347 82.64,48.347 82.64,18.603 		"/>
		<path fill="#333333" d="M13.36,77.397h48.152v-37.67H13.36V77.397z M24.744,60.124v-3.348v-0.358h0.357h10.184V46.075V45.72h0.358
			h3.345h0.36v0.355v10.343h10.183h0.358v0.358v3.348v0.357h-0.358H39.349v10.338v0.356h-0.36h-3.345h-0.358v-0.356V60.481H25.102
			h-0.357V60.124z"/>
	</g>
</g>
<g id="_x39__av_fast_forward" display="none">
	<polygon display="inline" fill="#333333" points="16.054,67.352 46.431,49.812 46.431,67.352 79.946,48 46.431,28.648 
		46.431,46.187 16.054,28.648 	"/>
</g>
<g id="_x39__av_rewind" display="none">
	<polygon display="inline" fill="#333333" points="79.946,28.648 49.569,46.188 49.569,28.648 16.054,48.001 49.569,67.352 
		49.569,49.812 79.946,67.352 	"/>
</g>
<g id="_x39__av_next" display="none">
	<polygon display="inline" fill="#333333" points="75.509,28.744 75.509,46.212 45.249,28.744 45.249,46.212 14.991,28.744 
		14.991,67.256 45.249,49.779 45.249,67.256 75.509,49.779 75.509,67.256 81.009,67.256 81.009,28.744 	"/>
</g>
<g id="_x39__av_previous" display="none">
	<polygon display="inline" fill="#333333" points="81.01,28.744 50.75,46.212 50.75,28.744 20.491,46.212 20.491,28.744 
		14.99,28.744 14.99,67.256 20.491,67.256 20.491,49.779 50.75,67.256 50.75,49.779 81.01,67.256 	"/>
</g>
<g id="_x39__av_replay" display="none">
	<path display="inline" fill="#333333" d="M78.552,42.812c-1.498-3.924-3.84-7.529-6.619-10.604
		c-2.922-3.129-6.338-5.606-10.176-7.377c-3.303-1.538-6.949-2.44-10.592-2.807V8.792L24.726,26.517l26.439,17.679V31.312
		c2.196,0.328,4.562,0.951,6.562,1.882c2.7,1.251,5.197,3.053,7.223,5.224c2.094,2.34,3.727,4.893,4.775,7.627
		c1.114,2.914,1.625,5.988,1.514,9.142c-0.109,3.147-0.828,6.184-2.146,9.016c-1.266,2.732-3.023,5.17-5.236,7.234
		c-0.439,0.408-0.877,0.791-1.328,1.152c-1.908,1.533-4.025,2.752-6.281,3.614c-2.916,1.11-5.988,1.624-9.142,1.515
		c-3.163-0.113-6.198-0.828-9.026-2.144c-2.723-1.269-5.17-3.038-7.258-5.272c-0.387-0.412-0.762-0.852-1.137-1.31
		c-1.514-1.884-2.729-3.999-3.598-6.272c-1.11-2.916-1.623-5.99-1.521-9.146c0.111-3.155,0.837-6.181,2.148-9.014l-8.387-3.816
		c-1.85,3.975-2.859,8.223-3.014,12.632c-0.146,4.42,0.572,8.729,2.141,12.82c1.203,3.162,2.898,6.115,5.033,8.771l0.1,0.12
		c0.477,0.594,0.982,1.174,1.506,1.731c2.893,3.098,6.307,5.573,10.148,7.359c3.979,1.844,8.232,2.859,12.639,3.01
		s8.715-0.562,12.807-2.133c3.18-1.219,6.139-2.921,8.798-5.061c0.628-0.504,1.233-1.027,1.825-1.58
		c3.107-2.9,5.584-6.312,7.371-10.144c1.842-3.976,2.854-8.228,3.004-12.642C80.839,51.226,80.12,46.911,78.552,42.812z"/>
</g>
<g id="_x39__av_pause_over_video" display="none">
	<g display="inline">
		<rect x="32.531" y="32.53" fill="#333333" width="12.376" height="30.939"/>
		<rect x="51.094" y="32.53" fill="#333333" width="12.375" height="30.939"/>
	</g>
	<g display="inline">
		<path fill-rule="evenodd" clip-rule="evenodd" fill="#333333" d="M47.998,10.926c-20.439,0-37.069,16.632-37.069,37.075
			c0,20.442,16.63,37.073,37.069,37.073c20.442,0,37.073-16.631,37.073-37.073C85.071,27.558,68.44,10.926,47.998,10.926z
			 M47.998,81.165c-18.285,0-33.16-14.876-33.16-33.164s14.875-33.167,33.16-33.167c18.287,0,33.164,14.879,33.164,33.167
			S66.285,81.165,47.998,81.165z"/>
	</g>
</g>
<g id="_x39__av_play_over_video" display="none">
	<g display="inline">
		<polygon fill="#333333" points="36.229,30.413 36.229,66.074 67.111,48.244 		"/>
		<g>
			<path fill-rule="evenodd" clip-rule="evenodd" fill="#333333" d="M47.998,10.926c-20.439,0-37.068,16.633-37.068,37.075
				s16.629,37.073,37.068,37.073c20.443,0,37.072-16.631,37.072-37.073S68.441,10.926,47.998,10.926z M47.998,81.166
				c-18.284,0-33.16-14.877-33.16-33.165c0-18.287,14.876-33.166,33.16-33.166c18.287,0,33.162,14.879,33.162,33.166
				C81.16,66.289,66.285,81.166,47.998,81.166z"/>
		</g>
	</g>
</g>
<g id="_x39__av_stop" display="none">
	<rect x="20.493" y="20.493" display="inline" fill="#333333" width="55.015" height="55.015"/>
</g>
<g id="_x39__av_pause" display="none">
	<g display="inline">
		<rect x="20.492" y="20.492" fill="#333333" width="22.006" height="55.016"/>
		<rect x="53.502" y="20.492" fill="#333333" width="22.006" height="55.016"/>
	</g>
</g>
<g id="_x39__av_play" display="none">
	<polygon display="inline" fill="#333333" points="19.415,14.99 19.415,81.01 76.585,48 	"/>
</g>
<g id="_x38__images_rotate_left" display="none">
	<g display="inline">
		<path fill="#333333" d="M53.985,48.258c0-3.65-2.962-6.613-6.62-6.613c-3.652,0-6.614,2.963-6.614,6.613
			c0,3.654,2.962,6.616,6.614,6.616C51.023,54.874,53.985,51.912,53.985,48.258z"/>
		<path fill="#333333" d="M79.743,45.591c-0.312-4.239-1.42-8.308-3.285-12.102c-1.943-3.927-4.621-7.379-7.968-10.263
			c-3.335-2.881-7.149-5.024-11.325-6.371c-3.997-1.291-8.273-1.729-12.411-1.487c-4.271,0.315-8.341,1.425-12.127,3.308
			c-3.29,1.619-6.297,3.914-8.876,6.544l-0.038-0.025l-6.003-5.108l-1.542,21.102l20.591-4.88l-5.941-5.06l-0.039-0.025
			c1.677-1.59,3.758-3.141,5.841-4.168c2.667-1.319,5.636-2.136,8.597-2.354c3.135-0.166,6.147,0.164,8.937,1.059
			c2.969,0.957,5.685,2.488,8.073,4.55c2.385,2.059,4.299,4.521,5.68,7.324c1.336,2.698,2.133,5.594,2.355,8.612
			c0.045,0.599,0.066,1.18,0.066,1.759c0,2.447-0.379,4.859-1.119,7.158c-0.963,2.968-2.488,5.685-4.549,8.074
			c-2.071,2.395-4.531,4.312-7.327,5.688c-2.695,1.329-5.607,2.127-8.657,2.353c-0.564,0.043-1.143,0.061-1.732,0.065
			c-2.416,0-4.828-0.378-7.144-1.126c-2.968-0.961-5.686-2.491-8.079-4.547c-2.389-2.064-4.295-4.526-5.68-7.322l-8.229,4.143
			c1.937,3.932,4.615,7.381,7.956,10.266c3.352,2.884,7.159,5.025,11.33,6.365c3.219,1.043,6.582,1.574,9.989,1.574h0.156
			c0.763,0,1.531-0.031,2.294-0.089c4.226-0.312,8.296-1.423,12.094-3.296c3.931-1.946,7.388-4.623,10.267-7.963
			s5.023-7.145,6.363-11.318c1.042-3.24,1.571-6.614,1.571-10.025C79.832,47.198,79.804,46.398,79.743,45.591z"/>
	</g>
</g>
<g id="_x38__images_rotate_right" display="none">
	<g display="inline">
		<path fill="#333333" d="M42.014,48.258c0,3.654,2.963,6.616,6.621,6.616c3.652,0,6.614-2.962,6.614-6.616
			c0-3.65-2.962-6.613-6.614-6.613C44.977,41.645,42.014,44.607,42.014,48.258z"/>
		<path fill="#333333" d="M64.281,65.67c-2.395,2.056-5.113,3.586-8.08,4.547c-2.316,0.748-4.727,1.126-7.143,1.126
			c-0.591-0.005-1.17-0.022-1.732-0.065c-3.052-0.226-5.964-1.023-8.658-2.353c-2.795-1.377-5.256-3.294-7.328-5.688
			c-2.06-2.39-3.586-5.106-4.549-8.074c-0.74-2.299-1.118-4.711-1.118-7.158c0-0.58,0.022-1.161,0.066-1.759
			c0.223-3.019,1.019-5.914,2.354-8.612c1.382-2.803,3.297-5.266,5.68-7.324c2.39-2.062,5.105-3.593,8.073-4.55
			c2.79-0.895,5.803-1.225,8.937-1.059c2.963,0.219,5.93,1.035,8.598,2.354c2.082,1.027,4.164,2.578,5.84,4.168l-0.038,0.025
			l-5.941,5.06l20.591,4.88L78.29,20.086l-6.003,5.108l-0.039,0.025c-2.578-2.63-5.584-4.925-8.875-6.544
			c-3.787-1.883-7.856-2.992-12.127-3.308c-4.137-0.241-8.413,0.196-12.41,1.487c-4.177,1.347-7.991,3.49-11.326,6.371
			c-3.347,2.884-6.025,6.336-7.968,10.263c-1.864,3.794-2.974,7.862-3.285,12.102c-0.062,0.808-0.089,1.607-0.089,2.414
			c0,3.411,0.528,6.785,1.57,10.025c1.342,4.174,3.484,7.979,6.363,11.318s6.336,6.017,10.268,7.963
			c3.798,1.873,7.867,2.984,12.095,3.296c0.762,0.058,1.53,0.089,2.293,0.089h0.156c3.407,0,6.771-0.531,9.988-1.574
			c4.171-1.34,7.979-3.481,11.331-6.365c3.341-2.885,6.02-6.334,7.957-10.266l-8.229-4.143C68.573,61.144,66.67,63.605,64.281,65.67
			z"/>
	</g>
</g>
<g id="_x38__images_crop" display="none">
	<g display="inline">
		<path fill="#333333" d="M81.217,64.381h-10.49V26.957H29.934v-10.49h-4.661v10.49H14.783v4.662h10.489v37.424h40.794v10.49h4.66
			v-10.49h10.49V64.381z M29.934,64.381V31.619h36.133v32.762H29.934z"/>
		<polygon fill="#333333" points="43.123,46.99 52.16,53.787 56.74,52.043 62.373,56.508 62.373,60.588 33.623,60.588 
			33.623,53.207 		"/>
	</g>
</g>
<g id="_x38__images_slideshow" display="none">
	<g display="inline">
		<g>
			<path fill="#333333" d="M15.094,15.094v65.812h65.812V15.094H15.094z M76.459,76.461H19.547V19.548h56.912V76.461z"/>
		</g>
		<g>
			<g>
				<polygon fill="#333333" points="32.898,29.569 32.898,66.184 64.602,47.875 				"/>
			</g>
		</g>
	</g>
</g>
<g id="_x37__location_web_site" display="none">
	<g display="inline">
		<polygon fill="#333333" points="75.59,40.646 75.916,40.481 76.039,40.158 75.986,40.193 75.625,39.984 75.236,39.914 
			75.086,40.381 75.258,40.622 		"/>
		<polygon fill="#333333" points="77.311,42.813 77.16,42.298 74.004,40.25 73.244,40.203 72.564,40.95 72.223,41.882 
			72.506,42.396 		"/>
		<polygon fill="#333333" points="28.922,40.347 28.559,41.653 29.736,40.316 29.834,39.9 29.327,39.701 		"/>
		<polygon fill="#333333" points="29.635,38.242 29.631,38.312 27.609,39.263 30.165,38.758 		"/>
		<polygon fill="#333333" points="31.164,40.774 31.413,40.575 31.631,40.07 31.595,40.138 31.771,39.543 31.289,39.473 
			30.922,39.566 30.681,39.824 30.559,40.25 30.881,40.665 		"/>
		<polygon fill="#333333" points="71.52,31.674 71.156,31.473 69.539,31.373 68.859,30.799 69.682,27.767 65.66,34.274 
			64.604,35.065 66.562,35.81 		"/>
		<polygon fill="#333333" points="75.312,49.709 79.314,56.066 76.086,50.057 		"/>
		<path fill="#333333" d="M48.004,10.924c-20.477,0-37.08,16.599-37.08,37.077c0,20.478,16.604,37.075,37.08,37.075
			c20.475,0,37.072-16.598,37.072-37.075C85.076,27.522,68.479,10.924,48.004,10.924z M60.359,36.397l-0.086,1.047l-1.518,0.353
			l-0.641-1.618l-0.012-3.153L60.359,36.397z M60.074,28.235l-0.949,0.74l-1.479-0.143l-0.121-0.301l0.047-1.363l1.096,0.242
			l1.148-0.258l0.539,0.217L60.074,28.235z M39.787,16.597l0.664-0.873c1.107-0.254,2.232-0.457,3.382-0.602l-3.599,2.354
			l-1.857,0.072L39.787,16.597z M36.134,17.287l0.695,0.137l2.415,1.371l0.58,0.088l-0.967,0.929l-1.563-0.211l-1.222-0.97
			L36.134,17.287z M34.701,17.6l0.146,0.211l-0.405,0.493l-0.736,0.315l-0.678,0.041l-0.132-0.178
			C33.493,18.18,34.086,17.863,34.701,17.6z M31.125,21.837l1.25-1.377l0.485,0.25l-0.182,0.895l-0.65,0.766l-0.907-0.133
			L31.125,21.837z M24.6,24.551l0.98-0.68L25.4,23.69c1.025-0.945,2.104-1.84,3.242-2.65l0.163,0.059l1.618-0.314l-0.047,1.809
			l-1.871,2.013l-2.396,1.105l-1.63-0.932L24.6,24.551z M15.324,51.586l-0.673-1.506c-0.006-0.111-0.018-0.223-0.018-0.334
			l0.717,1.23L15.324,51.586z M46.141,72.359l-3.656,2.697l-4.113,5.268c-2.38-0.717-4.631-1.709-6.752-2.908l-0.117-4.215
			l-3.93-7.602l0.061-1.482l1.13-2.705l-0.026-1.818l-1.239-1.371l-9.066-3.998l-3.011-5.117l-0.827-0.304l-0.016,0.053
			c-0.002-0.111-0.018-0.217-0.018-0.322c-0.067-8.88,3.362-16.956,8.966-22.987l1.031,0.574l5.699-1.172l0.674-0.393l0.15,0.311
			l-0.404,0.762L30.6,25.963l3.96-5.519l0.287-0.107l0.259-0.002l0.229,0.096l0.205,0.199l-2.491,4.642l0.956,0.9l1.348-0.924
			l0.3-4.163l1.704-0.537l-0.814,1.336l2.527-1.432l0.879,0.203l0.088,0.42l-1.608,0.287l3.037,2.587l1.179,2.023l-1.528,1.679
			l0.245,0.283l-1.112,1.762l-0.269-0.018l-0.57,0.305l-2.62-1.646l2.632-2.149l-0.393-0.869l-2.504-1.582l-0.805,2.268
			l-5.431,4.212l-1.777,2.669l1.508,1.718l2.444,1.125l1.029,0.924l2.137-5.466l0.824-0.794l3.664,1.767l0.42-0.059l3.01,7.271
			l-0.904,0.342l-1.119-0.057l-0.363-0.484l0.504-0.355l0.283-0.369l0.062-0.387l-0.164-0.409l-4.59,1.302l1.807,1.334l1.014,0.129
			l-6.981,3.89l-3.164,4.604l0.021,2.421l-1.168-0.277l-0.554-1.586l-3.773-0.702l-1.513,0.841l-1.272,1.729l-0.25,0.936
			l0.142,1.141l0.726,0.779l2.024-0.973l0.647,0.076l2.466,4.16l8.12,0.275l3.457,1.312l2.807,3.676l4.791,1.422l1.672,1.238
			L46.141,72.359z M34.859,29.081l-0.438,0.275l-1.392-0.006l-0.206-0.217l1.139-1.43l0.307,0.074l0.308,0.445L34.859,29.081z
			 M47.291,30.013l-0.763-2.188l0.288-2.073l1.201-2.819l-0.701-4.685l-2.422-0.314l-0.344-0.627l0.174-0.851l0.888-1.275
			l0.436-0.236c0.569-0.035,1.131-0.094,1.706-0.1c4.373-0.031,8.537,0.801,12.373,2.294l-2.211,5.923l-9.424,8.151L47.291,30.013z
			 M80.23,57.133c-2.053,7.486-6.629,13.924-12.779,18.332l-4.518-15.146l-2.373-0.678l-5.262,0.018l-3.184-1.877l0.18-3.727
			l4.273-8.4l-0.209-1.757l0.217-1.436l2.789-1.109l-0.176-0.789l-0.521-0.872l-0.047-0.613l6.451-4.755v-0.91l-2.297-1.765
			l-0.229-0.861l4.885-6.629l1.861-0.8l1.021,0.066c1.215,1.091,2.373,2.245,3.416,3.5l-0.445,0.135l1.211,1.242l0.211-0.088
			c2.844,3.774,4.932,8.156,5.969,12.941l-0.064,0.244l0.18,0.363c0.4,2.029,0.635,4.128,0.656,6.279
			c0.02,3.028-0.396,5.954-1.129,8.747l-0.258,0.16L80.23,57.133z"/>
		<polygon fill="#333333" points="75.564,45.457 70.559,44.097 70.055,43.485 70.154,44.941 70.025,45.054 66.105,40.962 
			66.1,40.991 65.471,41.144 65.365,40.993 65.555,41.782 67.1,42.913 67.217,43.739 66.914,44.247 66.691,44.411 66.41,44.513 
			64.938,42.196 62.723,42.21 58.104,45.639 64.164,45.416 66.904,47.901 68.209,48.358 75.482,46.898 		"/>
	</g>
</g>
<g id="_x37__location_map" display="none">
	<g display="inline">
		<path fill="#333333" d="M19.435,72.134c-2.402-3.593,2.972-6.771,5.589-9.276c1.436-1.372,10.131-9.582,6.351-11.252
			c-2.306-1.019-10.373-8.166-13.083-6.369c-0.75,0.505-3,0.979-4.191,1.012v6.807c1.057,1.735,4.272,2.818,4.252,5.045
			C18.316,61.654,13.83,71.43,19.435,72.134z M20.809,31.646c0.86-0.735-1.711-2.809-0.06-3.241c0.4-0.103,5.89,3.12,5.926,2.684
			c0.11-1.305-6.05-4.947-7.374-5.7c-4.336-2.452-3.31,1.466-5.402,3.283v6.761c0.205-0.312,1.668-0.644,2.004-1.013
			C17.303,32.885,19.342,32.898,20.809,31.646z M65.298,60.389c1.737-0.996,1.269-5.241,0.77-5.848
			C65.152,55.391,63.682,61.308,65.298,60.389z M48.472,47.178c3.649,1.456,3.404,20.501,9.325,15.449
			c3.119-2.657,3.974-6.02,4.192-9.667c0.113-1.895,5.817-6.636,5.257-7.839c-0.468-0.995-3.468,1.459-3.612-0.739
			c-0.086-1.319-4.036-4.144-3.309-5.164c1.099-1.558,2.67,2.858,2.651,2.811c1.006,2.38,1.871,1.959,4.043,1.413
			c5.035-1.271,0.729-2.861-0.573-4.554c-1.728-2.25,5.501,0.438,5.969,0.443c2.896,0.024,3.398,6.896,4.948,6.555
			c0.99-0.219,3.488-2.726,4.771-4.239V23.594c-1.07,0.023-3.555,0.057-4.623,0.053c-1.259-0.01-7.622,0.602-7.325-1.797
			c0.03-0.226-8.618,2.379-9.542,2.145c-1.106-0.291,1.986-1.762,1.972-1.628c0.065-0.567-0.226-0.923-0.724-1.144h-3.924
			c-3.599,0.678-8.099,2.518-8.915,3.676c0.857-1.215,2.713,3.048,2.74,3.059c0.36,0.156,3.237-4.854,4.376-2.999
			c1.491,2.417-5.015,3.693-6.296,3.192c-0.909-0.356-2.429,1.747-2.786,1.401c-1.053-1.034-0.702-4.468-1.208-4.769
			c-1.481-0.878-2.501,3.775-2.696,4.062c-0.25,0.364,4.59,1.942,2.715,2.874c-0.482,0.241-4.805-0.162-4.125,2.042
			c1.076,3.487,8.688-3.791,9.772-1.247c0.801,1.871,8.728-0.562,10.228-0.935c-1.548,6.337-8.1,4.943-12.569,3.678
			c-4.22-1.192-8.75,3.069-8.952,7.136C39.902,49.592,44.959,45.76,48.472,47.178z M72.572,71.563
			c-1.893,0.717-2.16,3.666-1.792,4.792H81.93V65.283C79.343,67.023,76.776,69.961,72.572,71.563z M16.82,41.781
			c-0.172-1.403-2.298-2.281-2.922-3.172v1.41C14.838,40.93,16.815,41.738,16.82,41.781z M90.736,10.818H5.264v74.363h85.473V10.818
			z M85.204,79.435H10.628V16.742h74.576V79.435z"/>
	</g>
</g>
<g id="_x37__location_directions" display="none">
	<path display="inline" fill="#333333" d="M77.206,46.809L49.188,18.797c-0.655-0.656-1.722-0.664-2.376,0L18.797,46.809
		c-0.655,0.656-0.655,1.717,0,2.378l28.016,28.016c0.326,0.33,0.757,0.494,1.183,0.494c0.433,0,0.862-0.164,1.188-0.494l2.394-2.387
		l25.63-25.629c0.314-0.318,0.488-0.74,0.488-1.187C77.694,47.551,77.521,47.125,77.206,46.809z M52.612,52.52v-5.007h-7.319v12.958
		h-5.97V41.846h0.012v-0.318h13.277v-5.062l10.951,8.029L52.612,52.52z"/>
</g>
<g id="_x37__location_place" display="none">
	<path display="inline" fill-rule="evenodd" clip-rule="evenodd" fill="#333333" d="M48.001,41.312
		c-4.168,0-7.545-3.251-7.545-7.273c0-4.021,3.377-7.272,7.545-7.272c4.167,0,7.542,3.252,7.542,7.272
		C55.544,38.062,52.168,41.312,48.001,41.312z M65.339,24.536c-2.334-4.062-6.045-7.188-10.961-8.836
		c-0.854-0.291-1.729-0.521-2.647-0.688c-0.958-0.168-2-0.291-3.083-0.354h-0.646h-0.646c-1.084,0.063-2.126,0.187-3.084,0.354
		c-0.918,0.166-1.793,0.396-2.647,0.688c-4.897,1.648-8.627,4.773-10.961,8.836c-1.604,2.792-2.666,6.271-2.419,10.525
		c0.107,1.957,0.628,3.707,1.23,5.291c0.627,1.562,1.355,2.979,2.21,4.334c3.252,5.296,7.668,10.005,10.169,16.069
		c1.271,3.082,2.396,6.293,3.355,9.709c0.936,3.375,1.791,6.961,2.146,10.877h0.646h0.646c0.354-3.916,1.208-7.502,2.144-10.877
		c0.96-3.416,2.084-6.627,3.356-9.709c2.501-6.064,6.917-10.773,10.169-16.069c0.855-1.354,1.584-2.771,2.209-4.334
		c0.604-1.584,1.125-3.334,1.229-5.291C68.005,30.808,66.942,27.328,65.339,24.536z"/>
</g>
<g id="_x36__social_add_group" display="none">
	<g display="inline">
		<polygon fill="#333333" points="81.396,71.337 81.396,58.21 77.413,58.21 77.413,71.337 64.486,71.337 64.486,75.319 
			77.413,75.319 77.413,88.271 81.396,88.271 81.396,75.319 94.407,75.319 94.407,71.337 		"/>
		<g>
			<g>
				<path fill="#333333" d="M44.691,47.376c10.954,0,19.825-8.873,19.825-19.825c0-10.948-8.871-19.821-19.825-19.821
					c-10.946,0-19.818,8.873-19.818,19.821C24.873,38.503,33.745,47.376,44.691,47.376z M59.793,33.497
					c-3.029,5.874-8.222,9.753-14.133,9.753c-5.909,0-11.107-3.879-14.136-9.753H59.793z M16.895,40.337
					c2.774,0,5.292-1.067,7.188-2.803c-0.33-0.68-0.629-1.378-0.892-2.093c-1.572,1.661-3.575,2.677-5.774,2.677
					c-3.179,0-5.973-2.086-7.601-5.244h12.606c-0.408-1.709-0.632-3.49-0.632-5.323c0-2.346,0.356-4.61,1.014-6.743
					c-1.691-1.128-3.723-1.788-5.909-1.788c-5.885,0-10.655,4.771-10.655,10.658S11.01,40.337,16.895,40.337z M83.164,29.678
					c0-5.888-4.771-10.658-10.66-10.658c-2.189,0-4.224,0.663-5.916,1.795c0.657,2.131,1.013,4.394,1.013,6.736
					c0,1.833-0.224,3.614-0.632,5.323h13.655c-1.629,3.158-4.421,5.244-7.599,5.244c-2.566,0-4.87-1.376-6.524-3.562
					c-0.33,1.022-0.727,2.016-1.189,2.97c1.896,1.741,4.416,2.812,7.192,2.812C78.394,40.337,83.164,35.565,83.164,29.678z
					 M56.654,49.945c-3.564,1.913-7.637,3.002-11.963,3.002c-4.319,0-8.391-1.089-11.956-3.001
					c-7.7,2.023-13.735,6.819-16.504,17.13h56.931C70.396,56.764,64.362,51.968,56.654,49.945z M29.558,45.528
					c-1.645-1.993-3.778-3.167-6.231-3.811c-1.917,1.028-4.106,1.614-6.433,1.614c-2.322,0-4.511-0.586-6.428-1.613
					c-4.14,1.088-7.385,3.666-8.874,9.21h18.35C22.636,48.547,25.844,46.743,29.558,45.528z M72.504,43.332
					c-2.321,0-4.512-0.586-6.428-1.613c-2.451,0.645-4.585,1.817-6.23,3.812c3.713,1.214,6.918,3.018,9.608,5.397h18.358
					c-1.487-5.545-4.732-8.123-8.877-9.211C77.02,42.746,74.829,43.332,72.504,43.332z"/>
			</g>
		</g>
	</g>
</g>
<g id="_x36__social_add_person" display="none">
	<g display="inline">
		<polygon fill="#333333" points="74.076,71.337 74.076,58.21 70.094,58.21 70.094,71.337 57.167,71.337 57.167,75.319 
			70.094,75.319 70.094,88.271 74.076,88.271 74.076,75.319 87.088,75.319 87.088,71.337 		"/>
		<path fill="#333333" d="M37.372,7.729c-10.946,0-19.818,8.873-19.818,19.821c0,10.952,8.872,19.825,19.818,19.825
			c10.954,0,19.825-8.873,19.825-19.825C57.197,16.603,48.326,7.729,37.372,7.729z M38.341,43.25
			c-5.909,0-11.107-3.879-14.137-9.753h28.27C49.444,39.371,44.252,43.25,38.341,43.25z"/>
		<path fill="#333333" d="M49.335,49.945c-3.564,1.913-7.638,3.002-11.963,3.002c-4.319,0-8.392-1.089-11.956-3.001
			c-7.7,2.023-13.735,6.819-16.504,17.13h56.931C63.076,56.764,57.043,51.968,49.335,49.945z"/>
	</g>
</g>
<g id="_x36__social_group" display="none">
	<g display="inline">
		<g>
			<path fill="#333333" d="M47.99,19.121c-10.653,0-19.289,8.636-19.289,19.291c0,10.658,8.636,19.295,19.289,19.295
				c10.66,0,19.293-8.637,19.293-19.295C67.283,27.757,58.65,19.121,47.99,19.121z M48.933,53.689c-5.752,0-10.81-3.773-13.758-9.49
				h27.511C59.738,49.916,54.686,53.689,48.933,53.689z"/>
			<g>
				<path fill="#333333" d="M27.065,46.091c-1.53,1.617-3.48,2.605-5.62,2.605c-3.094,0-5.812-2.03-7.396-5.104h12.268
					c-0.398-1.663-0.615-3.397-0.615-5.181c0-2.283,0.347-4.486,0.986-6.562c-1.646-1.098-3.622-1.74-5.75-1.74
					c-5.729,0-10.37,4.643-10.37,10.372c0,5.73,4.642,10.374,10.37,10.374c2.7,0,5.15-1.039,6.996-2.729
					C27.611,47.466,27.321,46.787,27.065,46.091z"/>
			</g>
			<g>
				<path fill="#333333" d="M75.057,30.109c-2.131,0-4.111,0.645-5.758,1.746c0.641,2.074,0.984,4.275,0.984,6.557
					c0,1.783-0.215,3.518-0.613,5.181h13.289c-1.584,3.073-4.301,5.104-7.395,5.104c-2.498,0-4.74-1.339-6.35-3.468
					c-0.32,0.996-0.707,1.962-1.158,2.891c1.846,1.693,4.299,2.736,7,2.736c5.732,0,10.375-4.644,10.375-10.374
					C85.432,34.752,80.789,30.109,75.057,30.109z"/>
			</g>
		</g>
		<g>
			<path fill="#333333" d="M59.633,60.207c-3.471,1.861-7.434,2.92-11.643,2.92c-4.205,0-8.166-1.059-11.637-2.92
				c-7.494,1.971-13.367,6.637-16.062,16.672h55.405C73.006,66.842,67.133,62.176,59.633,60.207z"/>
			<g>
				<g>
					<path fill="#333333" d="M33.262,55.908c-1.602-1.941-3.677-3.082-6.065-3.709c-1.864,1-3.995,1.57-6.259,1.57
						c-2.26,0-4.392-0.568-6.257-1.57c-4.029,1.06-7.188,3.568-8.636,8.965h17.858C26.524,58.846,29.646,57.09,33.262,55.908z"/>
				</g>
			</g>
			<g>
				<g>
					<path fill="#333333" d="M72.09,61.164h17.865c-1.447-5.396-4.605-7.906-8.639-8.965c-1.865,1-3.996,1.57-6.26,1.57
						c-2.26,0-4.391-0.568-6.256-1.57c-2.385,0.627-4.461,1.77-6.062,3.711C66.352,57.092,69.469,58.848,72.09,61.164z"/>
				</g>
			</g>
		</g>
	</g>
</g>
<g id="_x36__social_person" display="none">
	<g display="inline">
		<path fill="#333333" d="M47.996,19.127c-10.653,0-19.286,8.634-19.286,19.287c0,10.656,8.633,19.289,19.286,19.289
			c10.656,0,19.29-8.633,19.29-19.289C67.286,27.761,58.652,19.127,47.996,19.127z M48.937,53.689
			c-5.749,0-10.807-3.775-13.754-9.49H62.69C59.743,49.914,54.688,53.689,48.937,53.689z"/>
		<path fill="#333333" d="M59.637,60.205c-3.469,1.859-7.433,2.92-11.641,2.92c-4.204,0-8.166-1.059-11.636-2.92
			c-7.493,1.969-13.367,6.635-16.058,16.668h55.395C73.006,66.838,67.135,62.172,59.637,60.205z"/>
	</g>
</g>
<g id="_x36__social_cc_bcc" display="none">
	<g display="inline">
		<g>
			<path fill="#333333" d="M36.015,60.158c9.123,0,16.513-7.391,16.513-16.514c0-9.12-7.39-16.512-16.513-16.512
				c-9.12,0-16.512,7.392-16.512,16.512C19.503,52.768,26.895,60.158,36.015,60.158z M48.595,48.598
				c-2.523,4.893-6.851,8.125-11.775,8.125c-4.921,0-9.252-3.232-11.774-8.125H48.595z M45.98,62.301
				c-2.97,1.592-6.363,2.5-9.966,2.5c-3.6,0-6.99-0.906-9.962-2.5c-6.415,1.686-11.443,5.68-13.746,14.27h47.422
				C57.424,67.98,52.398,63.984,45.98,62.301z M55.74,40.894h16.816c-2.521,4.893-6.85,8.124-11.773,8.124
				c-1.859,0-3.635-0.462-5.26-1.301c-0.271,1.295-0.662,2.545-1.172,3.734c1.758,0.639,3.648,1.004,5.627,1.004
				c9.123,0,16.514-7.392,16.514-16.515c0-9.119-7.391-16.511-16.514-16.511c-5.664,0-10.656,2.854-13.631,7.198
				C51.35,29.676,54.9,34.85,55.74,40.894z M69.943,54.598c-2.969,1.592-6.363,2.498-9.965,2.498c-2.824,0-5.516-0.564-7.98-1.574
				c-1.086,1.451-2.359,2.754-3.791,3.865c5.375,1.705,9.365,4.838,12.062,9.479h23.424C81.389,60.275,76.363,56.281,69.943,54.598z
				"/>
		</g>
	</g>
</g>
<g id="_x36__social_forward" display="none">
	<g display="inline">
		<g>
			<path fill="#333333" d="M82.816,48.001L53.004,17.996v22.005h-7.516l-9.455,15.973h16.971v22.03L82.816,48.001z M33.836,40.001
				L24.32,55.974h8.184l9.543-15.973H33.836z M22.725,40.001l-9.541,15.973h8.209l9.518-15.973H22.725z"/>
		</g>
	</g>
</g>
<g id="_x36__social_reply_all" display="none">
	<g display="inline">
		<g>
			<path fill="#333333" d="M62.557,39.997h-8.56V17.979l-2.771,2.954L24.254,47.987l29.743,30.033V55.972h8.585
				c4.229,0,8.513,1.824,11.061,5.675c1.408,2.144,2.275,5.722,2.275,8.242l15.234-8.242C89.906,55.468,84.619,39.997,62.557,39.997
				z M34.99,33.891V17.979L4.848,47.987L34.99,78.021V62.106L20.73,47.987L34.99,33.891z"/>
		</g>
	</g>
</g>
<g id="_x36__social_reply" display="none">
	<path display="inline" fill="#333333" d="M52.852,40H45.01V17.986L14.559,47.988L45.01,78.014V55.971h7.897
		c4.199,0,8.509,1.824,11.031,5.674c1.407,2.143,2.274,5.721,2.274,8.24l15.229-8.24C80.225,55.467,74.937,40,52.852,40z"/>
</g>
<g id="_x36__social_chat" display="none">
	<path display="inline" fill="#333333" d="M73.609,25.566H9.362v44.877h64.453V38.358l12.824-12.802L73.609,25.566z M16.732,39.927
		h34.491v6.109H16.732V39.927z M67.256,56.643H16.732v-6.107h50.524V56.643z"/>
</g>
<g id="_x36__social_share" display="none">
	<path display="inline" fill="#333333" d="M69.916,60.883c-3.232,0-6.123,1.44-8.088,3.704L36.375,50.893
		c0.26-0.921,0.408-1.888,0.408-2.893s-0.148-1.972-0.408-2.892l25.453-13.695c1.965,2.264,4.855,3.705,8.088,3.705
		c5.898,0,10.695-4.793,10.695-10.666c0-5.897-4.797-10.693-10.695-10.693c-5.904,0-10.699,4.796-10.699,10.693
		c0,1.003,0.148,1.97,0.41,2.891L34.16,41.017c-1.962-2.251-4.851-3.678-8.078-3.678c-5.898,0-10.693,4.758-10.693,10.661
		c0,5.904,4.795,10.661,10.693,10.661c3.228,0,6.116-1.426,8.08-3.68l25.465,13.677c-0.262,0.921-0.41,1.888-0.41,2.888
		c0,5.9,4.795,10.695,10.699,10.695c5.898,0,10.695-4.795,10.695-10.695C80.611,65.674,75.814,60.883,69.916,60.883z"/>
</g>
<g id="_x36__social_send_now" display="none">
	<polygon display="inline" fill="#333333" points="20.242,75.404 25.529,50.484 58.842,48.167 58.842,47.83 25.529,45.514 
		20.242,20.596 75.758,48.002 	"/>
</g>
<g id="_x35__content_merge" display="none">
	<path display="inline" fill="#333333" d="M53.398,68.742c2.557,2.791,15.174,9.998,15.174,9.998l4.836-9.572
		c0,0-20.293-9.783-20.01-19.633V37.311l-0.008-0.059h8.957L47.992,17.668L33.635,37.252h0.018h8.956l-0.006,0.059v12.224
		c0.281,9.85-20.01,19.633-20.01,19.633l4.837,9.572c0,0,12.617-7.207,15.172-9.998l5.365-4.699L53.398,68.742z"/>
</g>
<g id="_x35__content_split" display="none">
	<path display="inline" fill="#333333" d="M72.793,36.587L58.436,17.004L44.077,36.587h9.048v21.388
		c-3.029-2.674-6.207-4.396-8.586-5.674L43,51.5l-0.016,0.023l4.285-7.862l-24.063,3.233l10.319,21.977l4.331-7.943l0.037-0.047
		l1.927,1.062c4.047,2.391,11.242,7.246,13.281,12.543v4.467l0.018,0.043h10.723V68.078l-0.006-31.491H72.793z"/>
</g>
<g id="_x35__content_import_export" display="none">
	<g display="inline">
		<polygon fill="#333333" points="45.261,59.322 45.261,29.993 54.253,29.993 39.839,10.332 25.423,29.993 34.506,29.993 
			34.506,59.322 		"/>
		<polygon fill="#333333" points="61.491,66.006 61.491,36.677 50.737,36.677 50.737,66.006 41.744,66.006 56.161,85.668 
			70.577,66.006 		"/>
	</g>
</g>
<g id="_x35__content_new_attachment" display="none">
	<g display="inline">
		<path fill="#333333" d="M26.989,71.555h-0.004c-3.899,0-7.562-1.518-10.314-4.273c-2.754-2.758-4.276-6.42-4.276-10.32
			c0-3.896,1.516-7.557,4.271-10.314l32.468-32.465c1.993-1.996,4.589-2.979,7.315-2.748c2.514,0.205,5.004,1.424,7.005,3.424
			c4.134,4.139,4.442,10.564,0.681,14.326l-27.248,27.25c-2.289,2.288-5.844,2.058-8.469-0.555c-2.486-2.49-2.735-6.291-0.559-8.473
			l22.289-22.287l2.971,2.969L30.832,50.375c-0.467,0.468-0.329,1.648,0.556,2.535c0.253,0.254,1.591,1.497,2.526,0.553
			l27.252-27.248c2.121-2.125,1.816-5.886-0.681-8.389c-1.3-1.299-2.855-2.082-4.376-2.205c-1.488-0.133-2.885,0.406-4.006,1.53
			L19.636,49.615c-1.965,1.963-3.042,4.574-3.042,7.346c0,2.777,1.082,5.386,3.047,7.35c1.961,1.961,4.568,3.043,7.345,3.043l0,0
			c2.78,0,5.39-1.078,7.349-3.043l28.104-28.098l2.969,2.969l-28.104,28.1C34.549,70.037,30.885,71.555,26.989,71.555z"/>
		<g>
			<g>
				<polygon fill="#333333" points="70.501,67.141 70.501,53.84 66.34,53.84 66.34,67.141 53.237,67.141 53.237,71.303 
					66.34,71.303 66.34,84.6 70.501,84.6 70.501,71.303 83.605,71.303 83.605,67.141 				"/>
			</g>
		</g>
	</g>
</g>
<g id="_x35__content_new_event" display="none">
	<g display="inline">
		<polygon fill="#333333" points="89.224,64.244 75.854,64.244 75.854,50.674 71.608,50.674 71.608,64.244 58.239,64.244 
			58.239,68.488 71.608,68.488 71.608,82.057 75.854,82.057 75.854,68.488 89.224,68.488 		"/>
		<path fill="#333333" d="M64.306,58.914V20.816H44.009H22.852v-6.873H6.776v16.075h6.785v28.896H64.306z M17.237,30.019h5.614
			v-5.526h21.157h16.623v30.746H17.237V30.019z"/>
		<rect x="22.185" y="38.963" fill="#333333" width="33.555" height="3.271"/>
		<rect x="22.185" y="31.592" fill="#333333" width="33.555" height="3.273"/>
	</g>
</g>
<g id="_x35__content_new_picture" display="none">
	<g display="inline">
		<polygon fill="#333333" points="74.449,69.92 74.449,56.494 70.248,56.494 70.248,69.92 57.018,69.92 57.018,74.121 
			70.248,74.121 70.248,87.543 74.449,87.543 74.449,74.121 87.676,74.121 87.676,69.92 		"/>
		<path fill="#333333" d="M62.711,8.457H8.324v54.391h54.387V8.457z M59.035,59.174H12.002V12.139h47.033V59.174z"/>
		<polygon fill="#333333" points="55.807,47.176 45.581,40.973 37.041,44.803 25.387,34.445 15.682,41.338 15.682,55.08 
			55.807,55.08 		"/>
	</g>
</g>
<g id="_x35__content_new_email" display="none">
	<g display="inline">
		<g>
			<polygon fill-rule="evenodd" clip-rule="evenodd" fill="#333333" points="2.459,25.56 2.459,60.199 68.672,60.199 68.672,25.56 
				35.564,42.021 			"/>
			<polygon fill-rule="evenodd" clip-rule="evenodd" fill="#333333" points="2.459,11.057 2.459,20.274 35.564,36.73 68.672,20.274 
				68.672,11.057 			"/>
		</g>
		<g>
			<g>
				<polygon fill-rule="evenodd" clip-rule="evenodd" fill="#333333" points="80.309,67.314 80.309,53.883 76.107,53.883 
					76.107,67.314 62.873,67.314 62.873,71.516 76.107,71.516 76.107,84.943 80.309,84.943 80.309,71.516 93.541,71.516 
					93.541,67.314 				"/>
			</g>
		</g>
	</g>
</g>
<g id="_x35__content_attachment" display="none">
	<path display="inline" fill="#333333" d="M14.976,59.54l-0.003-0.002c-3.391-3.068-5.493-7.141-5.927-11.47
		c-0.435-4.332,0.846-8.104,3.617-11.169c2.768-3.061,6.692-4.865,11.047-4.863l51.295,0.029c3.151-0.002,6.105,1.391,8.312,3.716
		c2.039,2.138,3.336,4.751,3.653,7.897c0.651,6.502-3.651,12.262-9.592,12.258l-43.053,0.008c-3.616-0.002-6.911-3.469-6.966-7.595
		c-0.04-3.931,2.093-7.345,5.538-7.346l35.214,0.021l0.034,4.919l-34.067-0.02c-0.739,0-1.991,0.633-2.054,2.421
		c-0.032,1.058,0.853,2.62,2.337,2.614l42.546,0.027c3.354-0.002,5.764-3.382,5.371-7.312c-0.206-2.044-1-3.58-2.234-4.873
		c-1.201-1.273-2.796-1.886-4.57-1.886l-51.294-0.029c-3.102-0.005-5.897,1.137-7.868,3.315c-1.974,2.181-2.61,4.683-2.577,7.867
		c0.033,3.098,1.81,5.983,4.221,8.167l0,0c2.416,2.188,5.832,2.725,8.932,2.723l45.222,0.027l-0.015,4.977L27.36,63.937
		C23.004,63.935,18.363,62.604,14.976,59.54z"/>
</g>
<g id="_x35__content_event" display="none">
	<g display="inline">
		<path fill="#333333" d="M60.884,25.794v-9.507h-4.948v9.507H40.203v-9.507h-4.949v9.507H20.085v9.396h0.889v44.522h40.075
			l13.811-13.809V35.19h1.056v-9.396H60.884z M70.765,63.732H58.567v12.004H24.16V35.19h46.604V63.732z"/>
	</g>
</g>
<g id="_x35__content_picture" display="none">
	<g display="inline">
		<path fill="#333333" d="M15.094,15.094v65.812h65.812V15.094H15.094z M76.459,76.461H19.547V19.548h56.912V76.461z"/>
		<polygon fill="#333333" points="72.553,61.943 60.18,54.438 49.842,59.072 35.746,46.54 23.998,54.881 23.998,71.51 72.553,71.51 
					"/>
	</g>
</g>
<g id="_x35__content_email" display="none">
	<g display="inline">
		<polygon fill-rule="evenodd" clip-rule="evenodd" fill="#333333" points="14.918,37.94 14.918,72.551 81.082,72.551 81.082,37.94 
			47.999,54.389 		"/>
		<polygon fill-rule="evenodd" clip-rule="evenodd" fill="#333333" points="14.918,23.449 14.918,32.658 47.999,49.102 
			81.082,32.658 81.082,23.449 		"/>
	</g>
</g>
<g id="_x35__content_select_all" display="none">
	<path display="inline" fill-rule="evenodd" clip-rule="evenodd" fill="#333333" d="M68.71,84h-3.771v-4h3.771V84z M61.18,84h-3.77
		v-4h3.77V84z M53.65,84H49.88v-4h3.771V84z M38.59,84h-3.77v-4h3.77V84z M31.061,84H27.29v-4h3.771V84z M45,69H27V51h18V69z M12,12
		h4v4h-4V12z M12,19.76h4v3.77h-4V19.76z M12,27.29h4v3.77h-4V27.29z M12,34.82h4v3.77h-4V34.82z M12,42.35h4v3.77h-4V42.35z
		 M12,49.88h4v3.771h-4V49.88z M12,57.41h4v3.77h-4V57.41z M12,64.939h4v3.771h-4V64.939z M12,72.471h4v3.77h-4V72.471z M12,80h4v4
		h-4V80z M19.76,12h3.77v4h-3.77V12z M19.76,80h3.77v4h-3.77V80z M45,45H27V27h18V45z M27.29,12h3.771v4H27.29V12z M34.82,12h3.77v4
		h-3.77V12z M42.35,12h3.771v4H42.35V12z M42.35,80h3.771v4H42.35V80z M49.88,12h3.771v4H49.88V12z M57.41,12h3.77v4h-3.77V12z
		 M64.939,12h3.771v4h-3.771V12z M51,27h18v18H51V27z M51,51h18v18H51V51z M72.471,12h3.77v4h-3.77V12z M72.471,80h3.77v4h-3.77V80z
		 M80,12h4v4h-4V12z M80,19.76h4v3.77h-4V19.76z M80,27.29h4v3.77h-4V27.29z M80,34.82h4v3.77h-4V34.82z M80,42.35h4v3.77h-4V42.35z
		 M80,49.88h4v3.771h-4V49.88z M80,57.41h4v3.77h-4V57.41z M80,64.939h4v3.771h-4V64.939z M80,72.471h4v3.77h-4V72.471z M80,84v-4h4
		v4H80z"/>
</g>
<g id="_x35__content_paste" display="none">
	<path display="inline" fill-rule="evenodd" clip-rule="evenodd" fill="#333333" d="M64.005,67h-34.01v-2h34.01V67z M49.995,61h-20
		v-2h20V61z M56.005,55h-26.01v-2h26.01V55z M66.005,49h-36.01v-2h36.01V49z M49.995,43h-20v-2h20V43z M72.005,20.99h-14l1.16,3.489
		c5.52,1.211,6.84,4.561,6.84,8.511h-36.01c0-3.761,1.56-6.97,6.77-8.31l1.23-3.69h-14v60.02h48.01V20.99z M47.995,11.99
		c-1.65,0-3,1.34-3,3c0,1.649,1.35,3,3,3c1.66,0,3-1.351,3-3C50.995,13.33,49.655,11.99,47.995,11.99z M17.995,87.01V14.99h24
		c0-3.32,2.689-6,6-6c3.32,0,6.01,2.68,6.01,6h24v72.02H17.995z"/>
</g>
<g id="_x35__content_copy" display="none">
	<path display="inline" fill-rule="evenodd" clip-rule="evenodd" fill="#333333" d="M60.005,17.99h-36.01v48.02h3v6h-3h-6V11.99
		h48.01v6v3h-6V17.99z M64.675,67.01h-22.68v-2h22.68V67.01z M55.335,61h-13.34v-2h13.34V61z M59.335,55h-17.34v-2h17.34V55z
		 M66.005,49h-24.01v-2h24.01V49z M55.335,43h-13.34v-2h13.34V43z M72.005,30h-36.01v48.01h36.01V30z M29.995,84.01V23.99h48.01
		v60.02H29.995z"/>
</g>
<g id="_x35__content_cut" display="none">
	<g display="inline">
		<path fill="#333333" d="M78.76,61.816c0.781,0.569,1.25,1.489,1.25,2.459c0,0.65-0.199,1.271-0.59,1.801
			c-0.48,0.66-1.189,1.09-2,1.209c-0.799,0.131-1.609-0.069-2.27-0.549c-0.779-0.57-1.24-1.5-1.24-2.471c0-0.65,0.199-1.27,0.59-1.8
			C75.49,61.115,77.4,60.816,78.76,61.816z M57.01,48.256c0-1.32,1.07-2.391,2.391-2.391c1.311,0,2.379,1.07,2.379,2.391
			c0,1.311-1.068,2.38-2.379,2.38C58.08,50.636,57.01,49.566,57.01,48.256z M77.42,29.216c0.811,0.13,1.52,0.56,2,1.21
			c0.391,0.529,0.59,1.15,0.59,1.8c0,0.97-0.469,1.9-1.25,2.47c-0.66,0.48-1.459,0.681-2.27,0.551
			c-0.801-0.12-1.51-0.551-1.99-1.211c-0.391-0.529-0.59-1.149-0.59-1.799c0-0.971,0.461-1.891,1.24-2.461
			C75.811,29.285,76.621,29.096,77.42,29.216z M72.779,26.535c-1.059,0.771-1.959,1.98-2.389,2.83c-0.221,0.44-0.52,0.971-0.9,1.631
			c-0.33,0.59-0.73,1.289-1.199,2.149c-2.451,4.5-4.941,7.431-4.961,7.45s-1.391,1.59-2.91,2.95c-8.5-3.65-22.42-9.591-23.76-9.931
			c-2-0.5-3.91,0.91-3.99,0.971l-0.879,0.66l0.939,0.57l20.49,12.439l-20.49,12.43l-0.939,0.57l0.879,0.66
			c0.08,0.06,1.99,1.47,3.99,0.97c1.33-0.33,15.26-6.28,23.76-9.931c1.52,1.371,2.891,2.94,2.9,2.951
			c0.029,0.029,2.52,2.949,4.971,7.459c0.469,0.86,0.869,1.561,1.209,2.15c0.371,0.66,0.67,1.18,0.891,1.62
			c0.43,0.851,1.33,2.06,2.389,2.84c3.141,2.3,7.58,1.62,9.881-1.521c0.891-1.219,1.359-2.649,1.359-4.159
			c0-2.229-1.07-4.36-2.859-5.7c-0.77-0.57-1.65-0.98-2.48-1.17c-0.67-0.24-1.18-0.32-1.719-0.41c-0.801-0.14-1.701-0.29-3.521-1.02
			c-3.539-1.42-6.5-4.051-6.549-4.101c-0.861-0.72-1.701-1.979-2.441-3.64c0.74-1.67,1.58-2.93,2.461-3.67
			c0.029-0.02,2.98-2.65,6.529-4.07c1.82-0.73,2.721-0.89,3.521-1.02c0.539-0.09,1.049-0.18,1.648-0.391
			c0.9-0.22,1.781-0.63,2.57-1.199c1.781-1.34,2.84-3.461,2.84-5.69c0-1.511-0.469-2.95-1.359-4.16
			C80.35,24.916,75.92,24.226,72.779,26.535z"/>
		<polygon fill="#333333" points="59.98,78 17.98,78 17.98,18 59.98,18 59.98,30 65.98,30 65.98,12 11.98,12 11.98,84 59.98,84 
			65.98,84 65.98,66 59.98,66 		"/>
	</g>
</g>
<g id="_x35__content_backspace" display="none">
	<path display="inline" fill="#333333" d="M5.869,48.163L26.651,68.89h63.479V27.11H26.651L5.869,48.163z M66.293,61.676
		L55.719,51.1L45.145,61.678L41.468,58l10.575-10.579L41.47,36.845l3.675-3.677l10.574,10.576l10.574-10.578l3.676,3.679
		L59.395,47.423L69.969,58L66.293,61.676z"/>
</g>
<g id="_x35__content_undo" display="none">
	<path display="inline" fill="#333333" d="M34.869,38.243v8.48l-18.357-13.46l18.357-13.453v8.393v0.035h10.557
		c20.748,0,34.062,6.076,34.062,23.979c0,17.898-13.314,23.973-34.062,23.973H21.665v-9.967h23.761
		c17.676,0,24.094-3.797,24.094-14.006c0-10.211-6.418-14.009-24.094-14.009H34.869V38.243z"/>
</g>
<g id="_x35__content_discard" display="none">
	<g display="inline">
		<path fill="#333333" d="M68.917,41.842c-0.046-0.281-0.218-0.557-0.476-0.82c-2.079,2.112-10.444,2.462-20.445,2.462
			s-18.358-0.35-20.446-2.462c-0.257,0.264-0.417,0.539-0.476,0.82h-0.02l0.006,0.152c0,0.018-0.006,0.035-0.006,0.053
			c0,0.041,0.012,0.078,0.018,0.117L28.7,75.518h0.004c0.145,2.615,3.139,6.568,19.292,6.568c16.155,0,19.151-3.953,19.292-6.568
			H67.3l1.63-33.354c0.003-0.039,0.016-0.076,0.016-0.117c0-0.018-0.013-0.036-0.013-0.053l0.013-0.152H68.917z"/>
		<path fill="#333333" d="M57.95,24.386v-7.875c0-1.422-1.164-2.597-2.595-2.597H39.77c-1.421,0-2.591,1.174-2.591,2.597v7.965
			c-7.705,0.874-12.98,2.644-12.98,4.694v3.893c0,0.799,0.809,1.559,2.26,2.244c3.801,1.786,12.018,3.024,21.538,3.024
			c9.528,0,17.741-1.238,21.547-3.024c1.442-0.686,2.259-1.445,2.259-2.244V29.17C71.802,27.047,66.12,25.221,57.95,24.386z
			 M42.161,24.06l-0.657,0.041v-3.262c0-1.426,0.199-2.594,0.435-2.594c0.242,0,1.604,0,3.031,0h5.193c1.422,0,2.789,0,3.027,0
			c0.239,0,0.435,1.168,0.435,2.594v3.209c-1.806-0.094-3.685-0.152-5.629-0.152C45.981,23.896,44.024,23.954,42.161,24.06z"/>
	</g>
</g>
<g id="_x35__content_read" display="none">
	<g display="inline">
		<g>
			<path fill="#333333" d="M47.937,12.842l-35.94,17.865v10.367h6.022v-6.957h59.998v6.957h5.987V30.707L47.937,12.842z
				 M47.938,68.121c-5.473,0-9.925-4.324-10.148-9.742L11.996,45.555v37.604h72.008V45.555L58.088,58.377
				C57.862,63.797,53.412,68.121,47.938,68.121z M48,65.143c3.073,0,5.546-2.246,6.476-4.969c0.238-0.699,0.528-1.246,0.528-2.035
				c0-3.863-3.142-7.006-7.004-7.006c-3.863,0-7.004,3.143-7.004,7.006c0,0.789,0.168,1.338,0.403,2.037
				C42.331,62.896,44.927,65.143,48,65.143z"/>
		</g>
	</g>
</g>
<g id="_x35__content_unread" display="none">
	<g display="inline">
		<g>
			<path fill="#333333" d="M58.21,50.057c0,5.686-4.564,10.295-10.193,10.295c-5.63,0-10.193-4.609-10.193-10.295
				c0-0.049,0.007-0.096,0.007-0.146L11.996,36.938v38.061h72.008V36.938L58.203,49.91C58.203,49.959,58.21,50.008,58.21,50.057z
				 M48.001,56.99c3.316,0,6.096-2.316,6.816-5.411c0.119-0.511,0.187-1.038,0.187-1.585c0-3.856-3.142-6.995-7.003-6.995
				c-3.862,0-7.005,3.139-7.005,6.995c0,0.547,0.069,1.074,0.188,1.586C41.905,54.674,44.685,56.99,48.001,56.99z M11.996,21.002
				v10.127l27.263,13.687c1.773-3.022,5.025-5.054,8.758-5.054c3.73,0,6.983,2.031,8.757,5.053l27.23-13.686V21.002H11.996z"/>
		</g>
	</g>
</g>
<g id="_x35__content_remove" display="none">
	<polygon display="inline" fill-rule="evenodd" clip-rule="evenodd" fill="#333333" points="74.854,25.288 70.712,21.146 
		48.001,43.856 25.288,21.146 21.146,25.288 43.856,48 21.146,70.712 25.288,74.854 48.001,52.144 70.712,74.854 74.854,70.712 
		52.145,48 	"/>
</g>
<g id="_x35__content_save" display="none">
	<path display="inline" fill="#333333" d="M55.129,34.895H41.523V17.406h13.605V34.895z M64.844,57.976v-3.921H29.86v3.921H64.844
		L64.844,57.976z M64.844,68.978v-3.923H29.86v3.923H64.844L64.844,68.978z M80.877,28.215v51.047c0,1.082-0.877,1.959-1.959,1.959
		H17.084c-1.085,0-1.961-0.877-1.961-1.959V16.74c0-1.083,0.876-1.961,1.961-1.961h8.08v23.756h35.631V14.779h6.652L80.877,28.215z
		 M70.836,45.592H25.164v31.093h45.672V45.592z"/>
</g>
<g id="_x35__content_edit" display="none">
	<g display="inline">
		<path fill="#333333" d="M46.763,31.234L23.248,54.982c0,0,2.028,1.913,7.24,1.683c1.114,2.374,2.169,5.169,8.257,8.029
			c-0.246,4.967,2.145,7.755,2.145,7.755l23.531-23.726c-0.286-3.237-2.708-7.268-6.549-11.065
			C52.619,32.453,48.224,31.439,46.763,31.234z"/>
		<path fill="#333333" d="M80.781,14.252c-6.904-5.659-11.676-4-14.107-1.658c-0.845,0.817-3.516,2.968-5.469,4.533
			c2.199,0.141,6.617,1.09,11.468,5.891c4.825,4.777,5.746,8.861,5.799,11.141c1.641-2.121,4.216-5.442,4.614-5.845
			C85.743,25.607,87.686,19.91,80.781,14.252z"/>
		<path fill="#333333" d="M27.046,59.498c-4.659,0.012-5.748-1.031-5.748-1.031l-10.818,27.11l27.005-11.218
			c0,0-2.144-4.243-2.089-6.516C33.509,67.244,28.562,64.237,27.046,59.498z"/>
		<path fill="#333333" d="M58.169,19.734l-2.681,2.638c0,0,5.119,0.833,11.186,6.846c3.807,3.78,5.862,7.778,6.229,10.571
			l2.56-2.553c0,0,0.891-4.625-5.689-11.201C63.309,19.57,58.169,19.734,58.169,19.734z"/>
		<path fill="#333333" d="M53.111,25.66l-2.562,2.526c0,0,4.903,0.797,10.706,6.559c3.646,3.614,5.615,7.439,5.969,10.116
			l2.447-2.45c0,0,0.852-4.425-5.447-10.722C58.04,25.502,53.111,25.66,53.111,25.66z"/>
	</g>
</g>
<g id="_x35__content_new" display="none">
	<polygon display="inline" fill-rule="evenodd" clip-rule="evenodd" fill="#333333" points="83.049,45.069 50.931,45.069 
		50.931,12.951 45.069,12.951 45.069,45.069 12.951,45.069 12.951,50.931 45.069,50.931 45.069,83.049 50.931,83.049 50.931,50.931 
		83.049,50.931 	"/>
</g>
<g id="_x34__collections_cloud" display="none">
	<path display="inline" fill-rule="evenodd" clip-rule="evenodd" fill="#333333" d="M73.648,50.42
		c-0.518-6.998-6.348-12.52-13.477-12.52c-2.758,0-5.318,0.828-7.461,2.247c-1.539-6.01-6.978-10.462-13.471-10.462
		c-7.687,0-13.921,6.234-13.921,13.922c0,0.566,0.045,1.121,0.109,1.674c-0.078-0.004-0.158-0.014-0.238-0.014
		c-5.812,0-10.524,4.713-10.524,10.525c0,5.634,4.436,10.223,10.001,10.496v0.025h48.388v-0.033
		c0.107,0.004,0.209,0.033,0.316,0.033c4.4,0,7.963-3.566,7.963-7.963C81.334,54.048,77.918,50.566,73.648,50.42z"/>
</g>
<g id="_x34__collections_go_to_today" display="none">
	<g display="inline">
		<path fill-rule="evenodd" clip-rule="evenodd" fill="#333333" d="M20,76h56V24H20V76z M78,80H18c-1.109,0-2-0.89-2-2V22
			c0-1.109,0.891-2,2-2h60c1.109,0,2,0.891,2,2v56C80,79.11,79.109,80,78,80z"/>
		<rect x="30" y="16" fill-rule="evenodd" clip-rule="evenodd" fill="#333333" width="8" height="12"/>
		<rect x="58" y="16" fill-rule="evenodd" clip-rule="evenodd" fill="#333333" width="8" height="12"/>
		<rect x="38" y="36" fill-rule="evenodd" clip-rule="evenodd" fill="#333333" width="8" height="8"/>
		<rect x="50" y="36" fill-rule="evenodd" clip-rule="evenodd" fill="#333333" width="8" height="8"/>
		<rect x="62" y="36" fill-rule="evenodd" clip-rule="evenodd" fill="#333333" width="8" height="8"/>
		<rect x="38" y="48" fill-rule="evenodd" clip-rule="evenodd" fill="#333333" width="8" height="8"/>
		<rect x="26" y="48" fill-rule="evenodd" clip-rule="evenodd" fill="#333333" width="8" height="8"/>
		<rect x="48" y="46" fill-rule="evenodd" clip-rule="evenodd" fill="#333333" width="12" height="12"/>
		<rect x="62" y="48" fill-rule="evenodd" clip-rule="evenodd" fill="#333333" width="8" height="8"/>
		<rect x="38" y="60" fill-rule="evenodd" clip-rule="evenodd" fill="#333333" width="8" height="8"/>
		<rect x="26" y="60" fill-rule="evenodd" clip-rule="evenodd" fill="#333333" width="8" height="8"/>
		<rect x="50" y="60" fill-rule="evenodd" clip-rule="evenodd" fill="#333333" width="8" height="8"/>
	</g>
</g>
<g id="_x34__collections_new_label" display="none">
	<g display="inline">
		<polygon fill="#333333" points="66.773,66.646 66.773,53.345 62.613,53.345 62.613,66.646 49.511,66.646 49.511,70.808 
			62.613,70.808 62.613,84.104 66.773,84.104 66.773,70.808 79.879,70.808 79.879,66.646 		"/>
		<path fill="#333333" d="M44.136,15.229L16.166,42.97l-0.045,20.604l20.602-0.049L64.695,35.78L44.136,15.229z M22.699,59.259
			c-1.303,0-2.357-1.056-2.357-2.356c0-1.302,1.055-2.357,2.357-2.357s2.357,1.056,2.357,2.357
			C25.056,58.203,24.002,59.259,22.699,59.259z M24.573,46.083l19.209-19.21l2.712,2.712L27.285,48.798L24.573,46.083z
			 M33.312,54.822L30.6,52.109l19.092-19.095l2.713,2.714L33.312,54.822z"/>
		<polygon fill="#333333" points="32.952,11.896 20.459,34.909 40.51,15.49 		"/>
	</g>
</g>
<g id="_x34__collections_sort_by_size" display="none">
	<g display="inline">
		<rect x="9.84" y="24.236" fill="#333333" width="76.32" height="7.521"/>
		<rect x="9.84" y="44.239" fill="#333333" width="53.125" height="7.521"/>
		<rect x="9.84" y="64.242" fill="#333333" width="27.882" height="7.521"/>
	</g>
</g>
<g id="_x34__collections_view_as_grid" display="none">
	<g display="inline">
		<rect x="22.65" y="23.08" fill="#333333" width="20.939" height="20.939"/>
		<rect x="52.41" y="23.08" fill="#333333" width="20.939" height="20.939"/>
		<rect x="22.65" y="51.979" fill="#333333" width="20.939" height="20.941"/>
		<rect x="52.41" y="51.979" fill="#333333" width="20.939" height="20.941"/>
	</g>
</g>
<g id="_x34__collections_view_as_list" display="none">
	<g display="inline">
		<path fill="#333333" d="M61.599,15.805H21.74v64.391h52.52V15.805H61.599z M68.378,69.199H27.624v-3.672h40.754V69.199z
			 M68.378,59.652H27.462v-3.834h40.916V59.652z M68.541,49.945H27.624v-3.998h40.917V49.945z M68.541,39.911H27.624v-3.668h40.917
			V39.911z M68.541,30.203H27.624v-3.672h40.917V30.203z"/>
	</g>
</g>
<g id="_x34__collections_labels" display="none">
	<g display="inline">
		<path fill="#333333" d="M52.992,17.864L15.541,55.01L15.48,82.598l27.584-0.064L80.52,45.38L52.992,17.864z M24.288,76.82
			c-1.743,0-3.154-1.412-3.154-3.157c0-1.741,1.411-3.155,3.154-3.155s3.157,1.414,3.157,3.155
			C27.445,75.408,26.031,76.82,24.288,76.82z M26.797,59.178L52.52,33.455l3.629,3.631L30.428,62.812L26.797,59.178z M38.5,70.88
			l-3.633-3.633L60.43,41.68l3.633,3.634L38.5,70.88z"/>
		<polygon fill="#333333" points="38.016,13.402 21.288,44.215 48.135,18.214 		"/>
	</g>
</g>
<g id="_x34__collections_collection" display="none">
	<polygon display="inline" fill="#333333" points="78.762,37.192 17.239,37.192 10.954,57.701 8.639,55.715 14.264,34.215 
		78.762,34.215 78.762,29.254 36.873,29.254 30.691,17.791 4.67,17.791 4.67,78.209 78.762,78.209 91.33,37.192 	"/>
</g>
<g id="_x33__rating_favorite" display="none">
	<g display="inline">
		<path fill="#333333" d="M47.999,30.396c2.303-5.186,6.336-10.206,12.096-10.206c3.366,0,6.469,1.638,9.305,4.913
			c2.701,3.107,4.057,6.23,4.057,9.374c0,4.696-1.289,9.612-3.856,14.756c-2.217,4.429-5.407,9.101-9.572,14.02
			c-3.146,3.722-7.199,7.952-12.159,12.693c-4.301-4.122-8.153-8.216-11.564-12.294c-4.168-5.007-7.4-9.682-9.705-14.025
			c-2.7-5.137-4.055-9.744-4.055-13.818c0-3.9,1.195-7.422,3.592-10.566c2.614-3.461,5.801-5.187,9.57-5.187
			C41.64,20.055,45.739,25.122,47.999,30.396z"/>
	</g>
</g>
<g id="_x33__rating_bad" display="none">
	<path display="inline" fill="#333333" d="M72.658,27.254c-5.229,0-9.518-0.231-12.324-1.013c-4.682-2.028-10.683-3.193-15.052-3.82
		c-8.299-1.185-11.82-0.73-14.403-0.049l-0.007,0.045c-1.36,0.396-2.349,1.357-2.812,3.014c-0.439,1.56-0.186,2.562,0.699,3.141
		l-0.768,0.102c-2.238,0.416-3.846,1.521-4.1,4.143c-0.182,1.876,0.412,3.07,1.613,3.57c-2.17,0.037-3.885,1.07-4.236,3.891
		c-0.324,2.582,1.244,4.26,3.389,4.351c-1.938,0.27-3.311,1.579-3.311,4.072c0,2.732,1.793,4.444,4.444,4.678l0.043-0.004
		c3.192,0.434,8.438,0.564,11.56,0.764c0.624,2.183,0.407,2.98-0.448,4.929c-2.967,3.2-4.525,6.395-4.058,10.842
		c0.171,1.62,1.669,4.192,2.807,4.366c1.965,0.301,2.553-1.284,3.958-3.625c1.479-2.461,2.199-3.082,3.918-6.043
		c1.713-2.967,1.949-3.666,8.187-8.033c5.675-3.968,4.914-5.457,11.465-6.701c1.179-0.227,4.678-0.823,9.438-0.823
		c1.168,0,2.116-2.571,2.116-10.898C74.774,29.826,73.826,27.254,72.658,27.254z"/>
</g>
<g id="_x33__rating_good" display="none">
	<g display="inline">
		<path fill="#333333" d="M71.344,51.373c1.939-0.271,3.311-1.577,3.311-4.072c0-2.733-1.793-4.445-4.443-4.68l-0.043,0.004
			c-3.195-0.434-8.436-0.563-11.558-0.763c-0.624-2.183-0.409-2.982,0.447-4.929c2.966-3.2,4.524-6.395,4.058-10.844
			c-0.17-1.618-1.668-4.191-2.807-4.365c-1.967-0.301-2.555,1.283-3.959,3.625c-1.478,2.461-2.199,3.082-3.918,6.044
			c-1.713,2.965-1.949,3.665-8.188,8.032c-5.674,3.967-4.915,5.457-11.465,6.703c-1.178,0.227-4.676,0.82-9.436,0.82
			c-1.17,0-2.117,2.573-2.117,10.901c0,8.325,0.947,10.896,2.117,10.896c5.227,0,9.518,0.231,12.324,1.012
			c4.679,2.027,10.682,3.193,15.052,3.82c8.3,1.186,11.818,0.73,14.402,0.049l0.009-0.046c1.36-0.394,2.349-1.356,2.813-3.013
			c0.438-1.559,0.185-2.562-0.699-3.141l0.768-0.1c2.236-0.418,3.846-1.523,4.098-4.146c0.182-1.874-0.41-3.069-1.611-3.57
			c2.17-0.035,3.885-1.068,4.234-3.891C75.055,53.142,73.486,51.464,71.344,51.373z"/>
	</g>
</g>
<g id="_x33__rating_half_important" display="none">
	<path display="inline" fill="#333333" d="M86.985,39.246l-27.988-2.469L47.999,10.922L37.003,36.777L9.015,39.246l21.189,18.451
		l-6.303,27.381l24.098-14.453l24.096,14.453l-6.299-27.381L86.985,39.246z M67.812,79.185L49.466,68.18l-1.467-0.88V18.208
		l8.374,19.686l0.669,1.574l1.704,0.15l21.311,1.879L63.923,55.547l-1.29,1.123l0.384,1.667L67.812,79.185z"/>
</g>
<g id="_x33__rating_not_important" display="none">
	<path display="inline" fill="#333333" d="M47.999,18.207l8.375,19.686l0.67,1.574l1.703,0.15l21.311,1.879L63.923,55.546
		l-1.29,1.123l0.384,1.667l4.796,20.85L49.465,68.181l-1.467-0.88l-1.467,0.88L28.185,79.185l4.799-20.849l0.383-1.667l-1.29-1.123
		L15.943,41.497l21.31-1.879l1.704-0.15l0.67-1.574L47.999,18.207 M47.998,10.921L37.003,36.776L9.015,39.245l21.189,18.451
		l-6.303,27.383l24.097-14.453l24.097,14.453l-6.299-27.383l21.189-18.451l-27.988-2.469L47.998,10.921L47.998,10.921z"/>
</g>
<g id="_x33__rating_important" display="none">
	<polygon display="inline" fill="#333333" points="48.002,10.79 59.037,36.739 87.123,39.214 65.859,57.73 72.18,85.21 
		48.002,70.702 23.823,85.21 30.145,57.73 8.877,39.214 36.966,36.739 	"/>
</g>
<g id="_x32__action_about" display="none">
	<g display="inline">
		<path fill="#333333" d="M50.45,32.071c-0.315-0.242-0.681-0.415-1.102-0.512c-0.417-0.097-0.864-0.146-1.338-0.146
			c-0.475,0-0.925,0.049-1.35,0.146c-0.426,0.097-0.795,0.27-1.111,0.512c-0.313,0.243-0.561,0.566-0.743,0.963
			c-0.181,0.398-0.272,0.898-0.272,1.498c0,0.586,0.092,1.082,0.272,1.484c0.183,0.406,0.43,0.732,0.743,0.976
			c0.316,0.242,0.686,0.42,1.111,0.523c0.425,0.104,0.875,0.156,1.35,0.156c0.474,0,0.921-0.053,1.338-0.156
			c0.421-0.104,0.786-0.281,1.102-0.523c0.312-0.243,0.566-0.569,0.752-0.976c0.188-0.402,0.283-0.898,0.283-1.484
			c0-0.6-0.096-1.1-0.283-1.498C51.017,32.638,50.763,32.314,50.45,32.071z"/>
		<rect x="44.807" y="40.582" fill="#333333" width="6.388" height="23.402"/>
		<path fill="#333333" d="M47.997,16.68c-17.267,0-31.314,14.051-31.314,31.321c0,17.27,14.048,31.319,31.314,31.319
			c17.27,0,31.32-14.05,31.32-31.319C79.317,30.73,65.267,16.68,47.997,16.68z M47.997,74.798
			c-14.773,0-26.792-12.021-26.792-26.797c0-14.777,12.019-26.799,26.792-26.799c14.775,0,26.797,12.021,26.797,26.799
			C74.794,62.776,62.772,74.798,47.997,74.798z"/>
	</g>
</g>
<g id="_x32__action_help" display="none">
	<g display="inline">
		<path fill="#333333" d="M40.103,58.048v-3.06c0-1.406,0.145-2.681,0.435-3.825c0.289-1.144,0.729-2.232,1.322-3.267
			c0.594-1.033,1.357-2.039,2.295-3.018c0.937-0.979,2.068-1.992,3.391-3.039c1.158-0.91,2.137-1.724,2.936-2.44
			c0.8-0.716,1.447-1.427,1.943-2.13c0.496-0.702,0.855-1.439,1.076-2.211s0.33-1.669,0.33-2.688c0-1.571-0.531-2.867-1.592-3.887
			c-1.062-1.021-2.682-1.53-4.858-1.53c-1.902,0-3.948,0.4-6.141,1.199c-2.19,0.8-4.459,1.778-6.802,2.937L30.22,21.95
			c1.185-0.688,2.474-1.344,3.866-1.964c1.393-0.621,2.839-1.172,4.342-1.654c1.502-0.482,3.024-0.862,4.568-1.137
			s3.061-0.414,4.549-0.414c2.812,0,5.348,0.339,7.608,1.014c2.261,0.676,4.177,1.66,5.747,2.956
			c1.572,1.296,2.777,2.868,3.619,4.714c0.84,1.848,1.261,3.956,1.261,6.326c0,1.736-0.193,3.288-0.579,4.652
			c-0.386,1.363-0.957,2.633-1.715,3.804c-0.76,1.173-1.71,2.303-2.854,3.391c-1.145,1.089-2.475,2.24-3.99,3.453
			c-1.158,0.909-2.103,1.702-2.834,2.378c-0.73,0.675-1.302,1.315-1.715,1.922c-0.414,0.607-0.696,1.234-0.848,1.882
			s-0.228,1.412-0.228,2.294v2.481H40.103z M38.738,72.189c0-1.295,0.186-2.391,0.559-3.287c0.371-0.896,0.889-1.619,1.55-2.171
			s1.44-0.95,2.337-1.198c0.895-0.249,1.853-0.373,2.873-0.373c0.965,0,1.882,0.124,2.75,0.373c0.867,0.248,1.633,0.646,2.295,1.198
			c0.661,0.552,1.185,1.275,1.57,2.171c0.387,0.896,0.58,1.992,0.58,3.287c0,1.241-0.193,2.302-0.58,3.184
			c-0.386,0.883-0.909,1.613-1.57,2.192c-0.662,0.578-1.428,0.998-2.295,1.261c-0.868,0.262-1.785,0.393-2.75,0.393
			c-1.021,0-1.979-0.131-2.873-0.393c-0.896-0.263-1.676-0.683-2.337-1.261c-0.661-0.579-1.179-1.31-1.55-2.192
			C38.924,74.491,38.738,73.431,38.738,72.189z"/>
	</g>
</g>
<g id="_x32__action_settings" display="none">
	<path display="inline" fill="#333333" d="M32.115,34.997c-2.811,0-5.121,2.3-5.121,5.121v15.765c0,2.82,2.311,5.121,5.121,5.121
		h1.76c2.811,0,5.122-2.301,5.122-5.121V40.118c0-2.821-2.312-5.121-5.122-5.121H32.115z M62.124,59.004
		c-2.811,0-5.121,2.299-5.121,5.121v15.764c0,2.822,2.311,5.121,5.121,5.121h1.761c2.81,0,5.122-2.299,5.122-5.121V64.125
		c0-2.822-2.312-5.121-5.122-5.121H62.124z M62.124,10.99c-2.811,0-5.121,2.301-5.121,5.121v15.765c0,2.821,2.311,5.122,5.121,5.122
		h1.761c2.821,0,5.122-2.301,5.122-5.122V16.111c0-2.82-2.301-5.121-5.122-5.121H62.124z M54.002,21.993H11.989v4.001h42.013V21.993
		z M84.011,25.994v-4.001H72.007v4.001H84.011z M23.992,46H11.989v4h12.003V46z M84.011,50v-4H41.998v4H84.011z M54.002,70.006
		H11.989v4.002h42.013V70.006z M84.011,74.008v-4.002H72.007v4.002H84.011z"/>
</g>
<g id="_x32__action_search" display="none">
	<path display="inline" fill="#333333" d="M79.494,70.18L67.33,58.012c-1.07-1.068-3.008-0.967-4.95,0.045l-5.308-5.305
		c6.914-9.034,6.262-22.002-2.003-30.268c-8.999-8.995-23.586-8.995-32.586,0c-8.995,9-8.995,23.588,0,32.587
		c8.268,8.265,21.236,8.917,30.269,2.001l5.307,5.304c-1.012,1.946-1.115,3.882-0.047,4.952l12.166,12.168
		c1.537,1.535,4.874,0.691,7.441-1.883C80.189,75.046,81.033,71.715,79.494,70.18z M25.91,51.646c-7.104-7.11-7.104-18.632,0-25.736
		c7.109-7.109,18.622-7.104,25.735,0c7.104,7.104,7.104,18.622,0,25.736C44.532,58.75,33.013,58.75,25.91,51.646z"/>
</g>
<g id="_x31__navigation_cancel" display="none">
	<polygon display="inline" fill-rule="evenodd" clip-rule="evenodd" fill="#333333" points="74.854,25.288 70.712,21.146 
		48.001,43.856 25.288,21.146 21.146,25.288 43.856,48 21.146,70.712 25.288,74.854 48.001,52.144 70.712,74.854 74.854,70.712 
		52.145,48 	"/>
</g>
<g id="_x31__navigation_accept" display="none">
	<polygon display="inline" fill-rule="evenodd" clip-rule="evenodd" fill="#333333" points="83.277,26.438 79.135,22.294 
		36.399,65.413 16.867,46.001 12.723,50.146 36.431,73.706 40.574,69.563 40.555,69.544 	"/>
</g>
<g id="_x31__navigation_collapse" display="none">
	<polygon display="inline" fill="#333333" points="23.371,63.777 47.998,42.513 72.634,63.777 77.721,57.881 47.998,32.223 
		18.279,57.881 	"/>
</g>
<g id="_x31__navigation_expand" display="none">
	<polygon display="inline" fill="#333333" points="72.628,32.223 48.002,53.488 23.366,32.223 18.278,38.121 48.002,63.777 
		77.722,38.121 	"/>
</g>
<g id="_x31__navigation_refresh" display="none">
	<path display="inline" fill-rule="evenodd" clip-rule="evenodd" fill="#333333" d="M58.986,24.938
		c-5.547-2.446-11.826-2.83-17.658-0.981c-11.08,3.488-18.276,14.001-17.529,25.577l-7.561,0.493
		c-0.98-15.07,8.4-28.758,22.805-33.307c8.441-2.66,17.58-1.739,25.344,2.456l7.258-7.753l1.932,21.512l-22.787,0.758L58.986,24.938
		z M58.705,79.11c-3.193,1.001-6.51,1.506-9.805,1.506c-5.369,0-10.695-1.384-15.507-3.973l-7.268,7.765l-1.931-21.513l22.774-0.767
		l-8.188,8.764c5.54,2.437,11.817,2.82,17.651,0.98c11.078-3.498,18.285-14.021,17.527-25.575l7.562-0.496
		C82.512,60.854,73.131,74.552,58.705,79.11z"/>
</g>
<g id="_x31__navigation_previous_item" display="none">
	<polygon display="inline" fill="#333333" points="64.617,73.938 42.223,48.006 64.617,22.055 58.408,16.697 31.383,48.006 
		58.408,79.303 	"/>
</g>
<g id="_x31__navigation_next_item" display="none">
	<polygon display="inline" fill="#333333" points="31.383,22.062 53.778,48.001 31.383,73.944 37.594,79.302 64.617,48.001 
		37.594,16.698 	"/>
</g>
<g id="_x31__navigation_forward" display="none">
	<polygon display="inline" fill="#333333" points="49.965,16.238 44.467,21.74 66.836,44.111 14.27,44.111 14.27,51.891 
		66.836,51.891 44.467,74.262 49.965,79.762 81.73,48.004 	"/>
</g>
<g id="_x31__navigation_back" display="none">
	<polygon display="inline" fill="#333333" points="46.031,79.76 51.531,74.258 29.162,51.885 81.73,51.885 81.73,44.109 
		29.162,44.109 51.531,21.738 46.031,16.24 14.27,47.998 	"/>
</g>
</svg>
