<?xml version="1.0" encoding="utf-8"?>
<!-- Generator: Adobe Illustrator 15.1.0, SVG Export Plug-In . SVG Version: 6.00 Build 0)  -->
<!DOCTYPE svg PUBLIC "-//W3C//DTD SVG 1.1//EN" "http://www.w3.org/Graphics/SVG/1.1/DTD/svg11.dtd">
<svg version="1.1" id="Layer_1" xmlns="http://www.w3.org/2000/svg" xmlns:xlink="http://www.w3.org/1999/xlink" x="0px" y="0px"
	 width="400px" height="400px" viewBox="0 0 400 400" enable-background="new 0 0 400 400" xml:space="preserve">
<path d="M349.859,155.445c0,14.33,0,28.67,0,43c-4.91,23.76-19.129,38.199-42,44c-72,0-144,0-216,0c-22.87-5.801-37.09-20.24-42-44
	c0-14.33,0-28.67,0-43c5.21-24.12,19.88-38.79,44-44c70.67,0,141.33,0,212,0C329.98,116.655,344.65,131.325,349.859,155.445z
	 M339.859,198.445c5.301-36.74-1.73-64.19-23-74c-11.799-5.44-57.57-5.88-77-3c-13.83,2.05-26,14.06-30,23
	c-8.76,19.58,1.971,43.83-6,66c-1.56,4.34-5.189,9.33-8,13c-3.19,4.16-9.17,7.369-8,10
	C250.369,228.096,332.08,252.445,339.859,198.445z M162.86,143.445c-4.12,15.89,23.12,15.89,19,0
	C178.18,137.415,166.38,137.215,162.86,143.445z M180.86,208.445c0-16,0-32,0-48c-5.67,0-11.33,0-17,0c0,16,0,32,0,48
	C169.53,208.445,175.19,208.445,180.86,208.445z M155.86,142.445c-6.33,0-12.67,0-19,0c-1.82,12.51-3.4,25.27-6,37
	c-0.95-13.39-4.73-23.94-6-37c-6,0-12,0-18,0c-1.72,12.95-4.74,24.6-7,37c-0.96-13.041-3.78-24.22-5-37c-6.33,0-12.67,0-19,0
	c5.23,22.1,9.85,44.811,16,66c5.33,0,10.67,0,16,0c3.16-12.51,5.21-26.131,8-39c1.8,13.53,4.48,26.18,7,39c5.67,0,11.33,0,17,0
	C145.56,186.814,150,163.916,155.86,142.445z"/>
<path d="M315.859,146.445c0.531,9.44-13.029,11.02-19,5C291.26,136.245,315.25,135.575,315.859,146.445z"/>
<path d="M313.859,160.445c0,16,0,32,0,48c-5.5-0.5-13.1,1.1-17-1c0-15.67,0-31.331,0-47
	C302.529,160.445,308.189,160.445,313.859,160.445z"/>
<path d="M286.859,142.445c0,5,0,10,0,15c-12.67,0-25.33,0-38,0c-2.309,3.03-0.35,10.311-1,15c11.67,0,23.33,0,35,0c0,5,0,10,0,15
	c-11.67,0-23.33,0-35,0c0,7,0,14,0,21c-6,0-12,0-18,0c0-22,0-44,0-66C248.859,142.445,267.859,142.445,286.859,142.445z"/>
<text transform="matrix(1 0 0 1 120.5513 283.7109)" font-family="'Arial-BoldMT'" font-size="44">DIRECT</text>
</svg>
